%TF.GenerationSoftware,KiCad,Pcbnew,7.0.2*%
%TF.CreationDate,2023-08-25T16:22:19-05:00*%
%TF.ProjectId,ziggy,7a696767-792e-46b6-9963-61645f706362,rev?*%
%TF.SameCoordinates,Original*%
%TF.FileFunction,Copper,L2,Bot*%
%TF.FilePolarity,Positive*%
%FSLAX46Y46*%
G04 Gerber Fmt 4.6, Leading zero omitted, Abs format (unit mm)*
G04 Created by KiCad (PCBNEW 7.0.2) date 2023-08-25 16:22:19*
%MOMM*%
%LPD*%
G01*
G04 APERTURE LIST*
G04 Aperture macros list*
%AMRoundRect*
0 Rectangle with rounded corners*
0 $1 Rounding radius*
0 $2 $3 $4 $5 $6 $7 $8 $9 X,Y pos of 4 corners*
0 Add a 4 corners polygon primitive as box body*
4,1,4,$2,$3,$4,$5,$6,$7,$8,$9,$2,$3,0*
0 Add four circle primitives for the rounded corners*
1,1,$1+$1,$2,$3*
1,1,$1+$1,$4,$5*
1,1,$1+$1,$6,$7*
1,1,$1+$1,$8,$9*
0 Add four rect primitives between the rounded corners*
20,1,$1+$1,$2,$3,$4,$5,0*
20,1,$1+$1,$4,$5,$6,$7,0*
20,1,$1+$1,$6,$7,$8,$9,0*
20,1,$1+$1,$8,$9,$2,$3,0*%
G04 Aperture macros list end*
%TA.AperFunction,ComponentPad*%
%ADD10RoundRect,0.250000X0.550000X-0.550000X0.550000X0.550000X-0.550000X0.550000X-0.550000X-0.550000X0*%
%TD*%
%TA.AperFunction,ComponentPad*%
%ADD11C,1.600000*%
%TD*%
%TA.AperFunction,ComponentPad*%
%ADD12RoundRect,0.250000X-0.550000X0.550000X-0.550000X-0.550000X0.550000X-0.550000X0.550000X0.550000X0*%
%TD*%
%TA.AperFunction,ComponentPad*%
%ADD13R,1.600000X1.600000*%
%TD*%
%TA.AperFunction,ComponentPad*%
%ADD14O,1.600000X1.600000*%
%TD*%
%TA.AperFunction,SMDPad,CuDef*%
%ADD15RoundRect,0.135000X-0.185000X0.135000X-0.185000X-0.135000X0.185000X-0.135000X0.185000X0.135000X0*%
%TD*%
%TA.AperFunction,ComponentPad*%
%ADD16C,2.500000*%
%TD*%
%TA.AperFunction,ComponentPad*%
%ADD17C,2.540000*%
%TD*%
%TA.AperFunction,SMDPad,CuDef*%
%ADD18R,2.200000X0.500000*%
%TD*%
%TA.AperFunction,ComponentPad*%
%ADD19C,0.630000*%
%TD*%
%TA.AperFunction,SMDPad,CuDef*%
%ADD20R,2.950000X4.900000*%
%TD*%
%TA.AperFunction,SMDPad,CuDef*%
%ADD21RoundRect,0.125000X0.125000X0.375000X-0.125000X0.375000X-0.125000X-0.375000X0.125000X-0.375000X0*%
%TD*%
%TA.AperFunction,SMDPad,CuDef*%
%ADD22RoundRect,0.250000X0.350000X0.600000X-0.350000X0.600000X-0.350000X-0.600000X0.350000X-0.600000X0*%
%TD*%
%TA.AperFunction,ViaPad*%
%ADD23C,0.800000*%
%TD*%
%TA.AperFunction,Conductor*%
%ADD24C,0.250000*%
%TD*%
%TA.AperFunction,Conductor*%
%ADD25C,0.140000*%
%TD*%
G04 APERTURE END LIST*
D10*
%TO.P,M2,1,+*%
%TO.N,Net-(M2-+)*%
X159250000Y-100870000D03*
D11*
%TO.P,M2,2,-*%
%TO.N,Net-(M2--)*%
X159250000Y-97270000D03*
%TD*%
D12*
%TO.P,M1,1,+*%
%TO.N,Net-(M1-+)*%
X182500000Y-97270000D03*
D11*
%TO.P,M1,2,-*%
%TO.N,Net-(M1--)*%
X182500000Y-100870000D03*
%TD*%
D13*
%TO.P,A1,1,TX1*%
%TO.N,unconnected-(A1-TX1-Pad1)*%
X163140000Y-99970000D03*
D14*
%TO.P,A1,2,RX1*%
%TO.N,unconnected-(A1-RX1-Pad2)*%
X163140000Y-102510000D03*
%TO.P,A1,3,~{RESET}*%
%TO.N,unconnected-(A1-~{RESET}-Pad3)*%
X163140000Y-105050000D03*
%TO.P,A1,4,GND*%
%TO.N,GND*%
X163140000Y-107590000D03*
%TO.P,A1,5,D2*%
%TO.N,unconnected-(A1-D2-Pad5)*%
X163140000Y-110130000D03*
%TO.P,A1,6,D3*%
%TO.N,D3 (PWM5)*%
X163140000Y-112670000D03*
%TO.P,A1,7,D4*%
%TO.N,unconnected-(A1-D4-Pad7)*%
X163140000Y-115210000D03*
%TO.P,A1,8,D5*%
%TO.N,D5 (PWM4)*%
X163140000Y-117750000D03*
%TO.P,A1,9,D6*%
%TO.N,D6 (PWM3)*%
X163140000Y-120290000D03*
%TO.P,A1,10,D7*%
%TO.N,unconnected-(A1-D7-Pad10)*%
X163140000Y-122830000D03*
%TO.P,A1,11,D8*%
%TO.N,unconnected-(A1-D8-Pad11)*%
X163140000Y-125370000D03*
%TO.P,A1,12,D9*%
%TO.N,D9 (PWM2)*%
X163140000Y-127910000D03*
%TO.P,A1,13,D10*%
%TO.N,D10 (PWM1)*%
X163140000Y-130450000D03*
%TO.P,A1,14,MOSI*%
%TO.N,unconnected-(A1-MOSI-Pad14)*%
X163140000Y-132990000D03*
%TO.P,A1,15,MISO*%
%TO.N,unconnected-(A1-MISO-Pad15)*%
X163140000Y-135530000D03*
%TO.P,A1,16,SCK*%
%TO.N,unconnected-(A1-SCK-Pad16)*%
X178380000Y-135530000D03*
%TO.P,A1,17,3V3*%
%TO.N,+3.3V*%
X178380000Y-132990000D03*
%TO.P,A1,18,AREF*%
%TO.N,unconnected-(A1-AREF-Pad18)*%
X178380000Y-130450000D03*
%TO.P,A1,19,A0*%
%TO.N,Top Distance*%
X178380000Y-127910000D03*
%TO.P,A1,20,A1*%
%TO.N,Front Distance*%
X178380000Y-125370000D03*
%TO.P,A1,21,A2*%
%TO.N,unconnected-(A1-A2-Pad21)*%
X178380000Y-122830000D03*
%TO.P,A1,22,A3*%
%TO.N,unconnected-(A1-A3-Pad22)*%
X178380000Y-120290000D03*
%TO.P,A1,23,SDA/A4*%
%TO.N,SDA*%
X178380000Y-117750000D03*
%TO.P,A1,24,SCL/A5*%
%TO.N,SCL*%
X178380000Y-115210000D03*
%TO.P,A1,25,A6*%
%TO.N,unconnected-(A1-A6-Pad25)*%
X178380000Y-112670000D03*
%TO.P,A1,26,A7*%
%TO.N,unconnected-(A1-A7-Pad26)*%
X178380000Y-110130000D03*
%TO.P,A1,27,+5V*%
%TO.N,+5V*%
X178380000Y-107590000D03*
%TO.P,A1,28,~{RESET}*%
%TO.N,unconnected-(A1-~{RESET}-Pad28)*%
X178380000Y-105050000D03*
%TO.P,A1,29,GND*%
%TO.N,GND*%
X178380000Y-102510000D03*
%TO.P,A1,30,VIN*%
%TO.N,+9V*%
X178380000Y-99970000D03*
%TD*%
D15*
%TO.P,R2,1*%
%TO.N,Net-(U2-ILIM)*%
X159500000Y-122000001D03*
%TO.P,R2,2*%
%TO.N,GND*%
X159500000Y-123020001D03*
%TD*%
D16*
%TO.P,BT1,1,+*%
%TO.N,+9V*%
X155500000Y-99000000D03*
D17*
%TO.P,BT1,2,-*%
%TO.N,GND*%
X155500000Y-108530000D03*
%TD*%
D18*
%TO.P,U2,1,GND*%
%TO.N,GND*%
X159500000Y-116689999D03*
%TO.P,U2,2,IN2*%
%TO.N,D5 (PWM4)*%
X159500000Y-117959999D03*
%TO.P,U2,3,IN1*%
%TO.N,D6 (PWM3)*%
X159500000Y-119229999D03*
%TO.P,U2,4,ILIM*%
%TO.N,Net-(U2-ILIM)*%
X159500000Y-120499999D03*
%TO.P,U2,5,VM*%
%TO.N,+9V*%
X153750000Y-120499999D03*
%TO.P,U2,6,OUT1*%
%TO.N,Net-(M2-+)*%
X153750000Y-119229999D03*
%TO.P,U2,7,GND*%
%TO.N,GND*%
X153750000Y-117959999D03*
%TO.P,U2,8,OUT2*%
%TO.N,Net-(M2--)*%
X153750000Y-116689999D03*
D19*
%TO.P,U2,9,GND*%
%TO.N,GND*%
X157275000Y-118594999D03*
X155975000Y-117294999D03*
X155975000Y-119894999D03*
X155975000Y-118594999D03*
X157275000Y-117294999D03*
D20*
X156625000Y-118594999D03*
D19*
X157275000Y-119894999D03*
%TD*%
D18*
%TO.P,U1,1,GND*%
%TO.N,GND*%
X159500000Y-126500000D03*
%TO.P,U1,2,IN2*%
%TO.N,D9 (PWM2)*%
X159500000Y-127770000D03*
%TO.P,U1,3,IN1*%
%TO.N,D10 (PWM1)*%
X159500000Y-129040000D03*
%TO.P,U1,4,ILIM*%
%TO.N,Net-(U1-ILIM)*%
X159500000Y-130310000D03*
%TO.P,U1,5,VM*%
%TO.N,+9V*%
X153750000Y-130310000D03*
%TO.P,U1,6,OUT1*%
%TO.N,Net-(M1-+)*%
X153750000Y-129040000D03*
%TO.P,U1,7,GND*%
%TO.N,GND*%
X153750000Y-127770000D03*
%TO.P,U1,8,OUT2*%
%TO.N,Net-(M1--)*%
X153750000Y-126500000D03*
D19*
%TO.P,U1,9,GND*%
%TO.N,GND*%
X157275000Y-128405000D03*
X155975000Y-127105000D03*
X155975000Y-129705000D03*
X155975000Y-128405000D03*
X157275000Y-127105000D03*
D20*
X156625000Y-128405000D03*
D19*
X157275000Y-129705000D03*
%TD*%
D15*
%TO.P,R1,1*%
%TO.N,Net-(U1-ILIM)*%
X159500000Y-132000000D03*
%TO.P,R1,2*%
%TO.N,GND*%
X159500000Y-133020000D03*
%TD*%
D21*
%TO.P,J2,1,Pin_1*%
%TO.N,GND*%
X184700000Y-140470000D03*
%TO.P,J2,2,Pin_2*%
%TO.N,+3.3V*%
X183900000Y-140470000D03*
%TO.P,J2,3,Pin_3*%
%TO.N,Front Distance*%
X183100000Y-140470000D03*
D22*
%TO.P,J2,MP*%
%TO.N,N/C*%
X186000000Y-142420000D03*
X181800000Y-142420000D03*
%TD*%
D23*
%TO.N,GND*%
X193750000Y-126500000D03*
%TO.N,+5V*%
X181480000Y-126000000D03*
X181500000Y-107500000D03*
%TO.N,SDA*%
X183000000Y-117750000D03*
X183250000Y-129000000D03*
%TO.N,+3.3V*%
X192853080Y-127663345D03*
X193000000Y-125250000D03*
X187250000Y-126000000D03*
X187250000Y-133000000D03*
X187135000Y-129510000D03*
X184000000Y-133000000D03*
X184000000Y-135020000D03*
%TO.N,SDA_3V3*%
X189000000Y-128500000D03*
X189000000Y-126930500D03*
%TO.N,SCL*%
X182500000Y-115250000D03*
X182500001Y-125070000D03*
%TO.N,SCL_3V3*%
X188000000Y-124480001D03*
X188250000Y-127500000D03*
%TO.N,+9V*%
X155250000Y-102250000D03*
X150750000Y-115000000D03*
%TO.N,Net-(M1-+)*%
X180500000Y-124000000D03*
X151374500Y-124250000D03*
%TO.N,Net-(M1--)*%
X184000000Y-121500000D03*
X153750000Y-121750000D03*
%TO.N,Net-(M2-+)*%
X152000000Y-100750000D03*
%TO.N,Net-(M2--)*%
X153750000Y-97500000D03*
%TO.N,Top Distance*%
X180500000Y-134750000D03*
%TO.N,Front Distance*%
X181250000Y-134000000D03*
X180710501Y-125250000D03*
X182996899Y-133975402D03*
%TD*%
D24*
%TO.N,Net-(U1-ILIM)*%
X159500000Y-132000000D02*
X159500000Y-130310000D01*
%TO.N,GND*%
X157275000Y-117294999D02*
X158895000Y-117294999D01*
X155975000Y-118594999D02*
X154385000Y-118594999D01*
X156610000Y-127770000D02*
X157275000Y-127105000D01*
X158895000Y-117294999D02*
X159500000Y-116689999D01*
X153750000Y-127770000D02*
X156610000Y-127770000D01*
X154385000Y-118594999D02*
X153750000Y-117959999D01*
%TO.N,Net-(U2-ILIM)*%
X159500000Y-120499999D02*
X159500000Y-122000001D01*
D25*
%TO.N,+5V*%
X181500000Y-125980000D02*
X181480000Y-126000000D01*
X181500000Y-107500000D02*
X181500000Y-125980000D01*
%TO.N,SDA*%
X183250000Y-129000000D02*
X183250000Y-118000000D01*
X183250000Y-118000000D02*
X183000000Y-117750000D01*
%TO.N,+3.3V*%
X187250000Y-129000000D02*
X187250000Y-126000000D01*
X193000000Y-125250000D02*
X193000000Y-127516425D01*
X187250000Y-129395000D02*
X187250000Y-129000000D01*
X187135000Y-129510000D02*
X187250000Y-129395000D01*
X184000000Y-133000000D02*
X184000000Y-135020000D01*
X183900000Y-135120000D02*
X184000000Y-135020000D01*
X187250000Y-133000000D02*
X187250000Y-129000000D01*
X193000000Y-127516425D02*
X192853080Y-127663345D01*
X183900000Y-140470000D02*
X183900000Y-135120000D01*
%TO.N,SDA_3V3*%
X189000000Y-126930500D02*
X189000000Y-128500000D01*
%TO.N,SCL*%
X182500000Y-115250000D02*
X182430000Y-115320000D01*
X182430000Y-124999999D02*
X182500001Y-125070000D01*
X182430000Y-115320000D02*
X182430000Y-124999999D01*
%TO.N,SCL_3V3*%
X188000000Y-124480001D02*
X188000000Y-127250000D01*
X188000000Y-127250000D02*
X188250000Y-127500000D01*
D24*
%TO.N,D9 (PWM2)*%
X163000000Y-127770000D02*
X163140000Y-127910000D01*
X159500000Y-127770000D02*
X163000000Y-127770000D01*
%TO.N,D10 (PWM1)*%
X161730000Y-129040000D02*
X163140000Y-130450000D01*
X159500000Y-129040000D02*
X161730000Y-129040000D01*
%TO.N,+9V*%
X153220000Y-120499999D02*
X150750000Y-118029999D01*
X150750000Y-128160000D02*
X150750000Y-118029999D01*
X152900000Y-130310000D02*
X150750000Y-128160000D01*
X155500000Y-99003394D02*
X155500000Y-102000000D01*
X150750000Y-118029999D02*
X150750000Y-115000000D01*
X155500000Y-102000000D02*
X155250000Y-102250000D01*
X153750000Y-120499999D02*
X153220000Y-120499999D01*
X153750000Y-130310000D02*
X152900000Y-130310000D01*
%TO.N,Net-(M1-+)*%
X180500000Y-124000000D02*
X180500000Y-99270000D01*
X151374500Y-127514500D02*
X151374500Y-124250000D01*
X152900000Y-129040000D02*
X151374500Y-127514500D01*
X180500000Y-99270000D02*
X182500000Y-97270000D01*
X153750000Y-129040000D02*
X152900000Y-129040000D01*
%TO.N,Net-(M1--)*%
X184000000Y-121500000D02*
X184000000Y-102370000D01*
X153750000Y-126500000D02*
X153750000Y-121750000D01*
X184000000Y-102370000D02*
X182500000Y-100870000D01*
%TO.N,D5 (PWM4)*%
X159500000Y-117959999D02*
X162930001Y-117959999D01*
X162930001Y-117959999D02*
X163140000Y-117750000D01*
%TO.N,D6 (PWM3)*%
X162079999Y-119229999D02*
X163140000Y-120290000D01*
X159500000Y-119229999D02*
X162079999Y-119229999D01*
%TO.N,Net-(M2-+)*%
X153220000Y-119229999D02*
X152000000Y-118009999D01*
X152000000Y-118009999D02*
X152000000Y-100750000D01*
X153750000Y-119229999D02*
X153220000Y-119229999D01*
%TO.N,Net-(M2--)*%
X153750000Y-97500000D02*
X153750000Y-116689999D01*
D25*
%TO.N,Top Distance*%
X180500000Y-130030000D02*
X178380000Y-127910000D01*
X180500000Y-134750000D02*
X180500000Y-130030000D01*
%TO.N,Front Distance*%
X180740000Y-125279499D02*
X180740000Y-133490000D01*
X182996899Y-140366899D02*
X183100000Y-140470000D01*
X182996899Y-133975402D02*
X182996899Y-140366899D01*
X180710501Y-125250000D02*
X180740000Y-125279499D01*
X180740000Y-133490000D02*
X181250000Y-134000000D01*
%TD*%
%TA.AperFunction,Conductor*%
%TO.N,GND*%
G36*
X195192539Y-94290185D02*
G01*
X195238294Y-94342989D01*
X195249500Y-94394500D01*
X195249500Y-144126000D01*
X195229815Y-144193039D01*
X195177011Y-144238794D01*
X195125500Y-144250000D01*
X145374500Y-144250000D01*
X145307461Y-144230315D01*
X145261706Y-144177511D01*
X145250500Y-144126000D01*
X145250500Y-140817764D01*
X146895787Y-140817764D01*
X146925413Y-141087016D01*
X146959998Y-141219304D01*
X146993928Y-141349088D01*
X147091890Y-141579611D01*
X147099871Y-141598392D01*
X147240982Y-141829611D01*
X147414253Y-142037818D01*
X147414255Y-142037820D01*
X147615998Y-142218582D01*
X147841910Y-142368044D01*
X147948211Y-142417876D01*
X148087177Y-142483021D01*
X148346562Y-142561058D01*
X148346569Y-142561060D01*
X148614561Y-142600500D01*
X148614564Y-142600500D01*
X148815369Y-142600500D01*
X148817631Y-142600500D01*
X149020156Y-142585677D01*
X149284553Y-142526780D01*
X149537558Y-142430014D01*
X149773777Y-142297441D01*
X149988177Y-142131888D01*
X150176186Y-141936881D01*
X150333799Y-141716579D01*
X150457656Y-141475675D01*
X150545118Y-141219305D01*
X150594319Y-140952933D01*
X150604212Y-140682235D01*
X150574586Y-140412982D01*
X150506072Y-140150912D01*
X150400130Y-139901610D01*
X150259018Y-139670390D01*
X150259017Y-139670388D01*
X150085746Y-139462181D01*
X149980759Y-139368112D01*
X149884002Y-139281418D01*
X149658090Y-139131956D01*
X149658086Y-139131954D01*
X149412822Y-139016978D01*
X149153437Y-138938941D01*
X149153431Y-138938940D01*
X148885439Y-138899500D01*
X148682369Y-138899500D01*
X148680120Y-138899664D01*
X148680109Y-138899665D01*
X148479843Y-138914322D01*
X148215449Y-138973219D01*
X147962441Y-139069986D01*
X147726223Y-139202559D01*
X147511825Y-139368109D01*
X147323813Y-139563120D01*
X147166201Y-139783420D01*
X147042342Y-140024329D01*
X146954881Y-140280695D01*
X146905680Y-140547066D01*
X146895787Y-140817764D01*
X145250500Y-140817764D01*
X145250500Y-133270000D01*
X158687156Y-133270000D01*
X158727595Y-133409195D01*
X158809264Y-133547290D01*
X158922709Y-133660735D01*
X159060807Y-133742406D01*
X159214872Y-133787166D01*
X159250000Y-133789930D01*
X159250000Y-133270000D01*
X159750000Y-133270000D01*
X159750000Y-133789930D01*
X159785127Y-133787166D01*
X159939192Y-133742406D01*
X160077290Y-133660735D01*
X160190735Y-133547290D01*
X160272404Y-133409195D01*
X160312844Y-133270000D01*
X159750000Y-133270000D01*
X159250000Y-133270000D01*
X158687156Y-133270000D01*
X145250500Y-133270000D01*
X145250500Y-115000000D01*
X149844540Y-115000000D01*
X149864326Y-115188257D01*
X149922820Y-115368284D01*
X150017466Y-115532216D01*
X150092649Y-115615715D01*
X150122879Y-115678707D01*
X150124499Y-115698687D01*
X150124499Y-117947259D01*
X150122235Y-117967760D01*
X150124439Y-118037871D01*
X150124500Y-118041766D01*
X150124500Y-128077256D01*
X150122235Y-128097766D01*
X150124439Y-128167872D01*
X150124500Y-128171767D01*
X150124500Y-128199350D01*
X150124988Y-128203219D01*
X150124989Y-128203225D01*
X150125004Y-128203343D01*
X150125918Y-128214967D01*
X150127290Y-128258626D01*
X150131798Y-128274140D01*
X150132861Y-128277800D01*
X150132879Y-128277860D01*
X150136825Y-128296916D01*
X150139335Y-128316792D01*
X150155414Y-128357404D01*
X150159197Y-128368451D01*
X150171382Y-128410391D01*
X150181580Y-128427635D01*
X150190136Y-128445100D01*
X150197514Y-128463732D01*
X150197515Y-128463733D01*
X150223180Y-128499059D01*
X150229593Y-128508822D01*
X150251826Y-128546416D01*
X150251829Y-128546419D01*
X150251830Y-128546420D01*
X150265995Y-128560585D01*
X150278627Y-128575375D01*
X150290406Y-128591587D01*
X150324058Y-128619426D01*
X150332699Y-128627289D01*
X152113181Y-130407772D01*
X152146666Y-130469095D01*
X152149500Y-130495452D01*
X152149500Y-130604560D01*
X152149500Y-130604578D01*
X152149501Y-130607872D01*
X152149853Y-130611152D01*
X152149854Y-130611159D01*
X152155909Y-130667484D01*
X152181056Y-130734906D01*
X152206204Y-130802331D01*
X152292454Y-130917546D01*
X152407669Y-131003796D01*
X152542517Y-131054091D01*
X152602127Y-131060500D01*
X154617185Y-131060499D01*
X154684224Y-131080184D01*
X154716451Y-131110187D01*
X154792810Y-131212188D01*
X154907910Y-131298352D01*
X155042628Y-131348599D01*
X155098867Y-131354645D01*
X155105482Y-131355000D01*
X156375000Y-131355000D01*
X156875000Y-131355000D01*
X158144518Y-131355000D01*
X158151132Y-131354645D01*
X158207371Y-131348599D01*
X158342089Y-131298352D01*
X158457189Y-131212188D01*
X158533547Y-131110188D01*
X158589481Y-131068317D01*
X158632811Y-131060499D01*
X158750500Y-131060499D01*
X158817539Y-131080184D01*
X158863294Y-131132988D01*
X158874500Y-131184499D01*
X158874500Y-131355404D01*
X158854815Y-131422443D01*
X158838182Y-131443084D01*
X158808865Y-131472400D01*
X158727130Y-131610607D01*
X158682335Y-131764793D01*
X158679691Y-131798384D01*
X158679690Y-131798400D01*
X158679500Y-131800819D01*
X158679500Y-131803263D01*
X158679500Y-131803264D01*
X158679500Y-132196756D01*
X158679500Y-132196781D01*
X158679501Y-132199180D01*
X158679689Y-132201571D01*
X158679690Y-132201593D01*
X158682335Y-132235205D01*
X158727130Y-132389392D01*
X158761418Y-132447370D01*
X158778601Y-132515094D01*
X158761419Y-132573611D01*
X158727593Y-132630809D01*
X158687155Y-132769999D01*
X158687155Y-132770000D01*
X159239591Y-132770000D01*
X159247821Y-132770323D01*
X159245955Y-132770213D01*
X159248375Y-132770307D01*
X159250819Y-132770500D01*
X159749180Y-132770499D01*
X159751596Y-132770308D01*
X159754038Y-132770213D01*
X159752171Y-132770322D01*
X159760392Y-132770000D01*
X160312844Y-132770000D01*
X160272404Y-132630804D01*
X160238581Y-132573612D01*
X160221398Y-132505888D01*
X160238579Y-132447372D01*
X160272869Y-132389393D01*
X160317665Y-132235204D01*
X160320500Y-132199181D01*
X160320499Y-131800820D01*
X160317665Y-131764796D01*
X160272869Y-131610607D01*
X160191135Y-131472402D01*
X160191134Y-131472400D01*
X160161818Y-131443084D01*
X160128333Y-131381761D01*
X160125500Y-131355404D01*
X160125500Y-131184499D01*
X160145185Y-131117460D01*
X160197989Y-131071705D01*
X160249500Y-131060499D01*
X160644561Y-131060499D01*
X160647872Y-131060499D01*
X160707483Y-131054091D01*
X160842331Y-131003796D01*
X160957546Y-130917546D01*
X161043796Y-130802331D01*
X161094091Y-130667483D01*
X161100500Y-130607873D01*
X161100499Y-130012128D01*
X161094091Y-129952517D01*
X161049450Y-129832830D01*
X161044467Y-129763142D01*
X161077952Y-129701819D01*
X161139275Y-129668334D01*
X161165633Y-129665500D01*
X161419548Y-129665500D01*
X161486587Y-129685185D01*
X161507229Y-129701819D01*
X161840586Y-130035177D01*
X161874071Y-130096500D01*
X161872680Y-130154950D01*
X161854364Y-130223307D01*
X161834531Y-130450000D01*
X161854364Y-130676689D01*
X161913261Y-130896497D01*
X162009432Y-131102735D01*
X162139953Y-131289140D01*
X162300859Y-131450046D01*
X162487263Y-131580566D01*
X162487266Y-131580568D01*
X162545275Y-131607618D01*
X162597714Y-131653791D01*
X162616865Y-131720985D01*
X162596649Y-131787866D01*
X162545275Y-131832382D01*
X162487263Y-131859433D01*
X162300859Y-131989953D01*
X162139953Y-132150859D01*
X162009432Y-132337264D01*
X161913261Y-132543502D01*
X161854364Y-132763310D01*
X161834531Y-132990000D01*
X161854364Y-133216689D01*
X161913261Y-133436497D01*
X162009432Y-133642735D01*
X162139953Y-133829140D01*
X162300859Y-133990046D01*
X162396863Y-134057268D01*
X162487266Y-134120568D01*
X162545275Y-134147618D01*
X162597714Y-134193791D01*
X162616865Y-134260985D01*
X162596649Y-134327866D01*
X162545275Y-134372382D01*
X162487263Y-134399433D01*
X162300859Y-134529953D01*
X162139953Y-134690859D01*
X162009432Y-134877264D01*
X161913261Y-135083502D01*
X161854364Y-135303310D01*
X161834531Y-135529999D01*
X161854364Y-135756689D01*
X161913261Y-135976497D01*
X162009432Y-136182735D01*
X162139953Y-136369140D01*
X162300859Y-136530046D01*
X162487264Y-136660567D01*
X162487265Y-136660567D01*
X162487266Y-136660568D01*
X162693504Y-136756739D01*
X162913308Y-136815635D01*
X163064436Y-136828856D01*
X163139999Y-136835468D01*
X163139999Y-136835467D01*
X163140000Y-136835468D01*
X163366692Y-136815635D01*
X163586496Y-136756739D01*
X163792734Y-136660568D01*
X163979139Y-136530047D01*
X164140047Y-136369139D01*
X164270568Y-136182734D01*
X164366739Y-135976496D01*
X164425635Y-135756692D01*
X164445468Y-135530000D01*
X177074531Y-135530000D01*
X177094364Y-135756689D01*
X177153261Y-135976497D01*
X177249432Y-136182735D01*
X177379953Y-136369140D01*
X177540859Y-136530046D01*
X177727264Y-136660567D01*
X177727265Y-136660567D01*
X177727266Y-136660568D01*
X177933504Y-136756739D01*
X178153308Y-136815635D01*
X178304436Y-136828856D01*
X178379999Y-136835468D01*
X178379999Y-136835467D01*
X178380000Y-136835468D01*
X178606692Y-136815635D01*
X178826496Y-136756739D01*
X179032734Y-136660568D01*
X179219139Y-136530047D01*
X179380047Y-136369139D01*
X179510568Y-136182734D01*
X179606739Y-135976496D01*
X179665635Y-135756692D01*
X179678369Y-135611144D01*
X179685468Y-135530004D01*
X179685468Y-135529999D01*
X179684931Y-135523866D01*
X179698695Y-135455369D01*
X179747309Y-135405184D01*
X179815337Y-135389248D01*
X179881181Y-135412620D01*
X179886176Y-135417110D01*
X180047269Y-135534151D01*
X180220197Y-135611144D01*
X180405352Y-135650500D01*
X180405354Y-135650500D01*
X180594648Y-135650500D01*
X180718083Y-135624262D01*
X180779803Y-135611144D01*
X180952730Y-135534151D01*
X181105871Y-135422888D01*
X181232533Y-135282216D01*
X181327179Y-135118284D01*
X181379773Y-134956415D01*
X181419209Y-134898743D01*
X181471920Y-134873446D01*
X181529803Y-134861144D01*
X181702730Y-134784151D01*
X181797646Y-134715191D01*
X181855870Y-134672889D01*
X181855871Y-134672888D01*
X181982533Y-134532216D01*
X182023163Y-134461841D01*
X182073729Y-134413627D01*
X182142336Y-134400403D01*
X182207201Y-134426371D01*
X182237937Y-134461842D01*
X182264363Y-134507615D01*
X182264366Y-134507618D01*
X182391028Y-134648290D01*
X182391031Y-134648292D01*
X182394549Y-134652199D01*
X182424779Y-134715191D01*
X182426399Y-134735172D01*
X182426399Y-139759931D01*
X182409131Y-139823052D01*
X182396381Y-139844610D01*
X182352291Y-139996370D01*
X182349691Y-140029402D01*
X182349690Y-140029418D01*
X182349500Y-140031837D01*
X182349500Y-140034281D01*
X182349500Y-140034282D01*
X182349500Y-140905738D01*
X182349500Y-140905763D01*
X182349501Y-140908162D01*
X182349690Y-140910562D01*
X182349691Y-140910590D01*
X182351848Y-140938017D01*
X182337479Y-141006393D01*
X182288424Y-141056147D01*
X182220258Y-141071480D01*
X182215633Y-141071095D01*
X182203153Y-141069820D01*
X182203129Y-141069818D01*
X182200009Y-141069500D01*
X182196860Y-141069500D01*
X181403141Y-141069500D01*
X181403121Y-141069500D01*
X181399992Y-141069501D01*
X181396860Y-141069820D01*
X181396858Y-141069821D01*
X181297203Y-141080000D01*
X181130665Y-141135186D01*
X180981342Y-141227288D01*
X180857288Y-141351342D01*
X180765186Y-141500665D01*
X180710000Y-141667202D01*
X180699819Y-141766858D01*
X180699817Y-141766878D01*
X180699500Y-141769991D01*
X180699500Y-141773138D01*
X180699500Y-141773139D01*
X180699500Y-143066859D01*
X180699500Y-143066878D01*
X180699501Y-143070008D01*
X180699820Y-143073140D01*
X180699821Y-143073141D01*
X180710000Y-143172796D01*
X180765186Y-143339334D01*
X180857288Y-143488657D01*
X180981342Y-143612711D01*
X180981344Y-143612712D01*
X181130666Y-143704814D01*
X181242016Y-143741712D01*
X181297202Y-143759999D01*
X181396858Y-143770180D01*
X181396859Y-143770180D01*
X181399991Y-143770500D01*
X182200008Y-143770499D01*
X182302797Y-143759999D01*
X182469334Y-143704814D01*
X182618656Y-143612712D01*
X182742712Y-143488656D01*
X182834814Y-143339334D01*
X182889999Y-143172797D01*
X182900500Y-143070009D01*
X182900500Y-143066878D01*
X184899500Y-143066878D01*
X184899501Y-143070008D01*
X184899820Y-143073140D01*
X184899821Y-143073141D01*
X184910000Y-143172796D01*
X184965186Y-143339334D01*
X185057288Y-143488657D01*
X185181342Y-143612711D01*
X185181344Y-143612712D01*
X185330666Y-143704814D01*
X185442016Y-143741712D01*
X185497202Y-143759999D01*
X185596858Y-143770180D01*
X185596859Y-143770180D01*
X185599991Y-143770500D01*
X186400008Y-143770499D01*
X186502797Y-143759999D01*
X186669334Y-143704814D01*
X186818656Y-143612712D01*
X186942712Y-143488656D01*
X187034814Y-143339334D01*
X187089999Y-143172797D01*
X187100500Y-143070009D01*
X187100499Y-141769992D01*
X187089999Y-141667203D01*
X187034814Y-141500666D01*
X186942712Y-141351344D01*
X186942711Y-141351342D01*
X186818657Y-141227288D01*
X186669334Y-141135186D01*
X186502797Y-141080000D01*
X186403141Y-141069819D01*
X186403122Y-141069818D01*
X186400009Y-141069500D01*
X186396860Y-141069500D01*
X185603141Y-141069500D01*
X185603121Y-141069500D01*
X185599992Y-141069501D01*
X185596875Y-141069819D01*
X185596863Y-141069820D01*
X185583855Y-141071149D01*
X185515163Y-141058375D01*
X185464281Y-141010492D01*
X185447364Y-140942701D01*
X185447643Y-140938057D01*
X185449807Y-140910562D01*
X185450000Y-140905666D01*
X185450000Y-140720000D01*
X184950000Y-140720000D01*
X184950000Y-141521486D01*
X184946527Y-141521486D01*
X184948462Y-141548978D01*
X184945032Y-141561485D01*
X184910000Y-141667202D01*
X184899819Y-141766858D01*
X184899817Y-141766878D01*
X184899500Y-141769991D01*
X184899500Y-141773138D01*
X184899500Y-141773139D01*
X184899500Y-143066859D01*
X184899500Y-143066878D01*
X182900500Y-143066878D01*
X182900499Y-141769992D01*
X182889999Y-141667203D01*
X182878832Y-141633503D01*
X182876430Y-141563674D01*
X182912162Y-141503633D01*
X182974683Y-141472440D01*
X182996529Y-141470499D01*
X183288162Y-141470499D01*
X183319440Y-141468038D01*
X183323628Y-141467709D01*
X183465405Y-141426519D01*
X183534595Y-141426519D01*
X183676373Y-141467709D01*
X183711837Y-141470500D01*
X184088162Y-141470499D01*
X184123627Y-141467709D01*
X184266303Y-141426258D01*
X184335492Y-141426258D01*
X184449999Y-141459525D01*
X184450000Y-141459525D01*
X184450000Y-141355952D01*
X184469685Y-141288913D01*
X184486320Y-141268270D01*
X184486319Y-141268269D01*
X184523170Y-141231420D01*
X184603618Y-141095390D01*
X184647709Y-140943627D01*
X184650500Y-140908163D01*
X184650500Y-140567764D01*
X189645787Y-140567764D01*
X189675413Y-140837016D01*
X189701829Y-140938057D01*
X189743928Y-141099088D01*
X189795015Y-141219305D01*
X189849871Y-141348392D01*
X189990982Y-141579611D01*
X190149418Y-141769992D01*
X190164255Y-141787820D01*
X190365998Y-141968582D01*
X190591910Y-142118044D01*
X190698211Y-142167876D01*
X190837177Y-142233021D01*
X191096562Y-142311058D01*
X191096569Y-142311060D01*
X191364561Y-142350500D01*
X191364564Y-142350500D01*
X191565369Y-142350500D01*
X191567631Y-142350500D01*
X191770156Y-142335677D01*
X192034553Y-142276780D01*
X192287558Y-142180014D01*
X192523777Y-142047441D01*
X192738177Y-141881888D01*
X192926186Y-141686881D01*
X193083799Y-141466579D01*
X193207656Y-141225675D01*
X193295118Y-140969305D01*
X193344319Y-140702933D01*
X193354212Y-140432235D01*
X193324586Y-140162982D01*
X193256072Y-139900912D01*
X193150130Y-139651610D01*
X193009018Y-139420390D01*
X193009017Y-139420388D01*
X192835746Y-139212181D01*
X192730759Y-139118112D01*
X192634002Y-139031418D01*
X192408090Y-138881956D01*
X192408086Y-138881954D01*
X192162822Y-138766978D01*
X191903437Y-138688941D01*
X191903431Y-138688940D01*
X191635439Y-138649500D01*
X191432369Y-138649500D01*
X191430120Y-138649664D01*
X191430109Y-138649665D01*
X191229843Y-138664322D01*
X190965449Y-138723219D01*
X190712441Y-138819986D01*
X190476223Y-138952559D01*
X190261825Y-139118109D01*
X190073813Y-139313120D01*
X189916201Y-139533420D01*
X189792342Y-139774329D01*
X189704881Y-140030695D01*
X189655680Y-140297066D01*
X189645787Y-140567764D01*
X184650500Y-140567764D01*
X184650499Y-140031838D01*
X184647709Y-139996373D01*
X184647709Y-139996371D01*
X184603618Y-139844610D01*
X184523169Y-139708578D01*
X184506819Y-139692228D01*
X184473334Y-139630905D01*
X184470500Y-139604547D01*
X184470500Y-139480472D01*
X184950000Y-139480472D01*
X184950000Y-140220000D01*
X185450000Y-140220000D01*
X185450000Y-140034333D01*
X185449808Y-140029453D01*
X185447210Y-139996447D01*
X185403155Y-139844810D01*
X185322771Y-139708888D01*
X185211111Y-139597228D01*
X185075189Y-139516844D01*
X184950000Y-139480472D01*
X184470500Y-139480472D01*
X184470500Y-135854421D01*
X184490185Y-135787382D01*
X184521611Y-135754105D01*
X184605871Y-135692888D01*
X184732533Y-135552216D01*
X184827179Y-135388284D01*
X184885674Y-135208256D01*
X184905460Y-135020000D01*
X184885674Y-134831744D01*
X184839898Y-134690861D01*
X184827179Y-134651715D01*
X184732533Y-134487783D01*
X184602350Y-134343201D01*
X184572120Y-134280210D01*
X184570500Y-134260229D01*
X184570500Y-133759770D01*
X184590185Y-133692731D01*
X184602350Y-133676797D01*
X184605867Y-133672890D01*
X184605871Y-133672888D01*
X184732533Y-133532216D01*
X184783935Y-133443186D01*
X184827179Y-133368284D01*
X184848550Y-133302512D01*
X184885674Y-133188256D01*
X184905460Y-133000000D01*
X184885674Y-132811744D01*
X184855332Y-132718363D01*
X184827179Y-132631715D01*
X184732533Y-132467783D01*
X184605870Y-132327110D01*
X184452730Y-132215848D01*
X184279802Y-132138855D01*
X184094648Y-132099500D01*
X184094646Y-132099500D01*
X183905354Y-132099500D01*
X183905352Y-132099500D01*
X183720197Y-132138855D01*
X183547269Y-132215848D01*
X183394129Y-132327110D01*
X183267466Y-132467783D01*
X183172820Y-132631715D01*
X183114326Y-132811742D01*
X183098338Y-132963864D01*
X183071753Y-133028478D01*
X183014456Y-133068463D01*
X182975017Y-133074902D01*
X182902251Y-133074902D01*
X182717096Y-133114257D01*
X182544168Y-133191250D01*
X182391028Y-133302512D01*
X182264366Y-133443184D01*
X182223735Y-133513560D01*
X182173168Y-133561775D01*
X182104560Y-133574997D01*
X182039696Y-133549029D01*
X182008961Y-133513560D01*
X181982533Y-133467784D01*
X181892943Y-133368284D01*
X181855870Y-133327110D01*
X181702730Y-133215848D01*
X181529802Y-133138855D01*
X181408719Y-133113118D01*
X181347237Y-133079926D01*
X181313461Y-133018762D01*
X181310500Y-132991828D01*
X181310500Y-127024500D01*
X181330185Y-126957461D01*
X181382989Y-126911706D01*
X181434500Y-126900500D01*
X181574648Y-126900500D01*
X181698084Y-126874262D01*
X181759803Y-126861144D01*
X181932730Y-126784151D01*
X181966288Y-126759770D01*
X182085870Y-126672889D01*
X182115484Y-126640000D01*
X182212533Y-126532216D01*
X182307179Y-126368284D01*
X182365674Y-126188256D01*
X182376890Y-126081537D01*
X182403475Y-126016924D01*
X182460772Y-125976939D01*
X182500211Y-125970500D01*
X182555500Y-125970500D01*
X182622539Y-125990185D01*
X182668294Y-126042989D01*
X182679500Y-126094500D01*
X182679500Y-128240229D01*
X182659815Y-128307268D01*
X182647650Y-128323201D01*
X182517466Y-128467783D01*
X182422820Y-128631715D01*
X182364326Y-128811742D01*
X182344540Y-129000000D01*
X182364326Y-129188257D01*
X182422820Y-129368284D01*
X182517466Y-129532216D01*
X182644129Y-129672889D01*
X182797269Y-129784151D01*
X182970197Y-129861144D01*
X183155352Y-129900500D01*
X183155354Y-129900500D01*
X183344648Y-129900500D01*
X183488138Y-129870000D01*
X183529803Y-129861144D01*
X183702730Y-129784151D01*
X183816051Y-129701819D01*
X183855870Y-129672889D01*
X183881217Y-129644739D01*
X183982533Y-129532216D01*
X183995359Y-129510000D01*
X186229540Y-129510000D01*
X186249326Y-129698257D01*
X186307820Y-129878284D01*
X186402466Y-130042216D01*
X186492359Y-130142051D01*
X186529129Y-130182888D01*
X186628386Y-130255002D01*
X186671051Y-130310330D01*
X186679500Y-130355319D01*
X186679500Y-132240229D01*
X186659815Y-132307268D01*
X186647650Y-132323201D01*
X186517466Y-132467783D01*
X186422820Y-132631715D01*
X186364326Y-132811742D01*
X186344540Y-133000000D01*
X186364326Y-133188257D01*
X186422820Y-133368284D01*
X186517466Y-133532216D01*
X186644129Y-133672889D01*
X186797269Y-133784151D01*
X186970197Y-133861144D01*
X187155352Y-133900500D01*
X187155354Y-133900500D01*
X187344648Y-133900500D01*
X187468083Y-133874262D01*
X187529803Y-133861144D01*
X187702730Y-133784151D01*
X187820501Y-133698586D01*
X187855870Y-133672889D01*
X187892943Y-133631716D01*
X187982533Y-133532216D01*
X188077179Y-133368284D01*
X188135674Y-133188256D01*
X188155460Y-133000000D01*
X188135674Y-132811744D01*
X188105332Y-132718363D01*
X188077179Y-132631715D01*
X187982535Y-132467786D01*
X187911948Y-132389392D01*
X187855871Y-132327112D01*
X187855867Y-132327109D01*
X187852349Y-132323202D01*
X187822119Y-132260210D01*
X187820499Y-132240240D01*
X187820499Y-130142050D01*
X187840184Y-130075012D01*
X187852351Y-130059077D01*
X187854476Y-130056716D01*
X187867533Y-130042216D01*
X187962179Y-129878284D01*
X188020674Y-129698256D01*
X188040460Y-129510000D01*
X188020674Y-129321744D01*
X187977301Y-129188256D01*
X187962179Y-129141715D01*
X187867533Y-128977783D01*
X187852349Y-128960919D01*
X187822120Y-128897927D01*
X187820500Y-128877948D01*
X187820500Y-128482452D01*
X187840185Y-128415413D01*
X187892989Y-128369658D01*
X187962147Y-128359714D01*
X187970261Y-128361157D01*
X187996888Y-128366817D01*
X188058368Y-128400009D01*
X188092145Y-128461171D01*
X188094160Y-128496390D01*
X188114326Y-128688257D01*
X188172820Y-128868284D01*
X188267466Y-129032216D01*
X188394129Y-129172889D01*
X188547269Y-129284151D01*
X188720197Y-129361144D01*
X188905352Y-129400500D01*
X188905354Y-129400500D01*
X189094648Y-129400500D01*
X189218084Y-129374262D01*
X189279803Y-129361144D01*
X189452730Y-129284151D01*
X189536538Y-129223261D01*
X189605870Y-129172889D01*
X189632546Y-129143263D01*
X189732533Y-129032216D01*
X189827179Y-128868284D01*
X189885674Y-128688256D01*
X189905460Y-128500000D01*
X189885674Y-128311744D01*
X189854229Y-128214967D01*
X189827179Y-128131715D01*
X189732533Y-127967783D01*
X189602350Y-127823201D01*
X189572120Y-127760210D01*
X189570500Y-127740229D01*
X189570500Y-127690270D01*
X189578406Y-127663344D01*
X191947620Y-127663344D01*
X191967406Y-127851602D01*
X192025900Y-128031629D01*
X192120546Y-128195561D01*
X192247209Y-128336234D01*
X192400349Y-128447496D01*
X192573277Y-128524489D01*
X192758432Y-128563845D01*
X192758434Y-128563845D01*
X192947728Y-128563845D01*
X193096605Y-128532200D01*
X193132883Y-128524489D01*
X193305810Y-128447496D01*
X193333146Y-128427635D01*
X193458950Y-128336234D01*
X193585613Y-128195561D01*
X193680259Y-128031629D01*
X193680259Y-128031628D01*
X193738754Y-127851601D01*
X193758540Y-127663345D01*
X193738754Y-127475089D01*
X193680259Y-127295061D01*
X193680259Y-127295060D01*
X193587113Y-127133727D01*
X193570500Y-127071727D01*
X193570500Y-126009770D01*
X193590185Y-125942731D01*
X193602350Y-125926797D01*
X193605867Y-125922890D01*
X193605871Y-125922888D01*
X193732533Y-125782216D01*
X193747722Y-125755909D01*
X193827179Y-125618284D01*
X193848428Y-125552886D01*
X193885674Y-125438256D01*
X193905460Y-125250000D01*
X193885674Y-125061744D01*
X193827179Y-124881716D01*
X193827179Y-124881715D01*
X193732533Y-124717783D01*
X193605870Y-124577110D01*
X193452730Y-124465848D01*
X193279802Y-124388855D01*
X193094648Y-124349500D01*
X193094646Y-124349500D01*
X192905354Y-124349500D01*
X192905352Y-124349500D01*
X192720197Y-124388855D01*
X192547269Y-124465848D01*
X192394129Y-124577110D01*
X192267466Y-124717783D01*
X192172820Y-124881715D01*
X192114326Y-125061742D01*
X192094540Y-125250000D01*
X192114326Y-125438257D01*
X192172820Y-125618284D01*
X192267464Y-125782213D01*
X192267466Y-125782215D01*
X192267467Y-125782216D01*
X192394129Y-125922888D01*
X192394132Y-125922890D01*
X192397650Y-125926797D01*
X192427880Y-125989789D01*
X192429500Y-126009770D01*
X192429500Y-126794834D01*
X192409815Y-126861873D01*
X192378385Y-126895152D01*
X192247209Y-126990455D01*
X192120546Y-127131128D01*
X192025900Y-127295060D01*
X191967406Y-127475087D01*
X191947620Y-127663344D01*
X189578406Y-127663344D01*
X189590185Y-127623231D01*
X189602350Y-127607297D01*
X189605867Y-127603390D01*
X189605871Y-127603388D01*
X189732533Y-127462716D01*
X189761516Y-127412517D01*
X189827179Y-127298784D01*
X189834040Y-127277669D01*
X189885674Y-127118756D01*
X189905460Y-126930500D01*
X189885674Y-126742244D01*
X189838396Y-126596739D01*
X189827179Y-126562215D01*
X189732533Y-126398283D01*
X189605870Y-126257610D01*
X189452730Y-126146348D01*
X189279802Y-126069355D01*
X189094648Y-126030000D01*
X189094646Y-126030000D01*
X188905354Y-126030000D01*
X188905351Y-126030000D01*
X188720280Y-126069337D01*
X188650613Y-126064021D01*
X188594880Y-126021884D01*
X188570775Y-125956304D01*
X188570500Y-125948047D01*
X188570500Y-125239771D01*
X188590185Y-125172732D01*
X188602350Y-125156798D01*
X188605867Y-125152891D01*
X188605871Y-125152889D01*
X188732533Y-125012217D01*
X188827179Y-124848285D01*
X188885674Y-124668257D01*
X188905460Y-124480001D01*
X188885674Y-124291745D01*
X188844884Y-124166208D01*
X188827179Y-124111716D01*
X188732533Y-123947784D01*
X188605870Y-123807111D01*
X188452730Y-123695849D01*
X188279802Y-123618856D01*
X188094648Y-123579501D01*
X188094646Y-123579501D01*
X187905354Y-123579501D01*
X187905352Y-123579501D01*
X187720197Y-123618856D01*
X187547269Y-123695849D01*
X187394129Y-123807111D01*
X187267466Y-123947784D01*
X187172820Y-124111716D01*
X187114326Y-124291743D01*
X187094540Y-124480001D01*
X187114326Y-124668258D01*
X187172820Y-124848284D01*
X187214761Y-124920929D01*
X187231232Y-124988829D01*
X187208380Y-125054856D01*
X187153458Y-125098046D01*
X187133154Y-125104218D01*
X186970197Y-125138855D01*
X186797269Y-125215848D01*
X186644129Y-125327110D01*
X186517466Y-125467783D01*
X186422820Y-125631715D01*
X186364326Y-125811742D01*
X186344724Y-125998246D01*
X186344540Y-126000000D01*
X186347351Y-126026747D01*
X186364326Y-126188257D01*
X186422820Y-126368284D01*
X186517464Y-126532213D01*
X186517467Y-126532216D01*
X186644129Y-126672888D01*
X186644132Y-126672890D01*
X186647650Y-126676797D01*
X186677880Y-126739789D01*
X186679500Y-126759770D01*
X186679500Y-128664680D01*
X186659815Y-128731719D01*
X186628385Y-128764998D01*
X186529129Y-128837110D01*
X186402466Y-128977783D01*
X186307820Y-129141715D01*
X186249326Y-129321742D01*
X186229540Y-129510000D01*
X183995359Y-129510000D01*
X184077179Y-129368284D01*
X184135674Y-129188256D01*
X184155460Y-129000000D01*
X184135674Y-128811744D01*
X184101355Y-128706122D01*
X184077179Y-128631715D01*
X183982533Y-128467783D01*
X183852350Y-128323201D01*
X183822120Y-128260210D01*
X183820500Y-128240229D01*
X183820500Y-122524500D01*
X183840185Y-122457461D01*
X183892989Y-122411706D01*
X183944500Y-122400500D01*
X184094648Y-122400500D01*
X184218084Y-122374262D01*
X184279803Y-122361144D01*
X184452730Y-122284151D01*
X184566330Y-122201616D01*
X184605870Y-122172889D01*
X184732533Y-122032216D01*
X184827179Y-121868284D01*
X184827178Y-121868283D01*
X184885674Y-121688256D01*
X184905460Y-121500000D01*
X184885674Y-121311744D01*
X184847350Y-121193795D01*
X184827179Y-121131715D01*
X184732533Y-120967783D01*
X184657350Y-120884284D01*
X184627120Y-120821293D01*
X184625500Y-120801312D01*
X184625500Y-102452739D01*
X184627763Y-102432238D01*
X184625561Y-102362144D01*
X184625500Y-102358250D01*
X184625500Y-102334544D01*
X184625500Y-102330650D01*
X184624998Y-102326681D01*
X184624080Y-102315024D01*
X184623613Y-102300156D01*
X184622709Y-102271373D01*
X184617120Y-102252137D01*
X184613176Y-102233093D01*
X184610664Y-102213208D01*
X184594582Y-102172591D01*
X184590798Y-102161540D01*
X184578617Y-102119610D01*
X184568421Y-102102369D01*
X184559863Y-102084902D01*
X184552486Y-102066268D01*
X184526798Y-102030912D01*
X184520409Y-102021184D01*
X184498170Y-101983579D01*
X184484006Y-101969415D01*
X184471369Y-101954620D01*
X184459595Y-101938414D01*
X184459594Y-101938413D01*
X184425935Y-101910568D01*
X184417305Y-101902714D01*
X183799413Y-101284822D01*
X183765928Y-101223499D01*
X183767319Y-101165047D01*
X183785635Y-101096692D01*
X183805468Y-100870000D01*
X183785635Y-100643308D01*
X183726739Y-100423504D01*
X183630568Y-100217266D01*
X183595514Y-100167202D01*
X183500046Y-100030859D01*
X183339140Y-99869953D01*
X183152735Y-99739432D01*
X182946497Y-99643261D01*
X182726689Y-99584364D01*
X182499999Y-99564531D01*
X182273310Y-99584364D01*
X182053502Y-99643261D01*
X181847264Y-99739432D01*
X181660859Y-99869953D01*
X181499953Y-100030859D01*
X181369433Y-100217263D01*
X181369433Y-100217264D01*
X181369432Y-100217266D01*
X181361880Y-100233459D01*
X181315709Y-100285897D01*
X181248515Y-100305048D01*
X181181634Y-100284832D01*
X181136300Y-100231666D01*
X181125500Y-100181052D01*
X181125500Y-99580451D01*
X181145185Y-99513412D01*
X181161815Y-99492774D01*
X182047771Y-98606817D01*
X182109094Y-98573333D01*
X182135452Y-98570499D01*
X183096859Y-98570499D01*
X183100008Y-98570499D01*
X183202797Y-98559999D01*
X183369334Y-98504814D01*
X183518656Y-98412712D01*
X183642712Y-98288656D01*
X183734814Y-98139334D01*
X183751903Y-98087764D01*
X189895787Y-98087764D01*
X189925413Y-98357016D01*
X189961942Y-98496739D01*
X189993928Y-98619088D01*
X190099870Y-98868390D01*
X190099871Y-98868392D01*
X190240982Y-99099611D01*
X190414253Y-99307818D01*
X190414255Y-99307820D01*
X190615998Y-99488582D01*
X190841910Y-99638044D01*
X190931438Y-99680013D01*
X191087177Y-99753021D01*
X191346562Y-99831058D01*
X191346569Y-99831060D01*
X191614561Y-99870500D01*
X191614564Y-99870500D01*
X191815369Y-99870500D01*
X191817631Y-99870500D01*
X192020156Y-99855677D01*
X192284553Y-99796780D01*
X192537558Y-99700014D01*
X192773777Y-99567441D01*
X192988177Y-99401888D01*
X193176186Y-99206881D01*
X193333799Y-98986579D01*
X193457656Y-98745675D01*
X193545118Y-98489305D01*
X193594319Y-98222933D01*
X193604212Y-97952235D01*
X193574586Y-97682982D01*
X193506072Y-97420912D01*
X193400130Y-97171610D01*
X193315794Y-97033420D01*
X193259017Y-96940388D01*
X193085746Y-96732181D01*
X193063424Y-96712180D01*
X192884002Y-96551418D01*
X192658090Y-96401956D01*
X192655336Y-96400665D01*
X192412822Y-96286978D01*
X192153437Y-96208941D01*
X192153431Y-96208940D01*
X191885439Y-96169500D01*
X191682369Y-96169500D01*
X191680120Y-96169664D01*
X191680109Y-96169665D01*
X191479843Y-96184322D01*
X191215449Y-96243219D01*
X190962441Y-96339986D01*
X190726223Y-96472559D01*
X190511825Y-96638109D01*
X190323813Y-96833120D01*
X190166201Y-97053420D01*
X190042342Y-97294329D01*
X189954881Y-97550695D01*
X189905680Y-97817066D01*
X189895787Y-98087764D01*
X183751903Y-98087764D01*
X183789999Y-97972797D01*
X183800500Y-97870009D01*
X183800499Y-96669992D01*
X183789999Y-96567203D01*
X183734814Y-96400666D01*
X183642712Y-96251344D01*
X183642711Y-96251342D01*
X183518657Y-96127288D01*
X183369334Y-96035186D01*
X183202797Y-95980000D01*
X183103141Y-95969819D01*
X183103122Y-95969818D01*
X183100009Y-95969500D01*
X183096860Y-95969500D01*
X181903140Y-95969500D01*
X181903120Y-95969500D01*
X181899992Y-95969501D01*
X181896860Y-95969820D01*
X181896858Y-95969821D01*
X181797203Y-95980000D01*
X181630665Y-96035186D01*
X181481342Y-96127288D01*
X181357288Y-96251342D01*
X181265186Y-96400665D01*
X181210000Y-96567202D01*
X181199819Y-96666858D01*
X181199817Y-96666878D01*
X181199500Y-96669991D01*
X181199500Y-96673139D01*
X181199500Y-97634546D01*
X181179815Y-97701585D01*
X181163181Y-97722227D01*
X180116208Y-98769199D01*
X180100110Y-98782096D01*
X180052096Y-98833225D01*
X180049392Y-98836016D01*
X180032628Y-98852780D01*
X180032621Y-98852787D01*
X180029880Y-98855529D01*
X180027499Y-98858597D01*
X180027490Y-98858608D01*
X180027411Y-98858711D01*
X180019842Y-98867572D01*
X179989935Y-98899420D01*
X179980285Y-98916974D01*
X179969609Y-98933228D01*
X179957326Y-98949063D01*
X179939975Y-98989158D01*
X179934838Y-98999644D01*
X179913802Y-99037907D01*
X179908821Y-99057309D01*
X179902520Y-99075711D01*
X179894561Y-99094102D01*
X179887728Y-99137242D01*
X179885360Y-99148674D01*
X179874500Y-99190977D01*
X179874500Y-99211016D01*
X179872972Y-99230414D01*
X179869840Y-99250196D01*
X179873397Y-99287820D01*
X179873950Y-99293673D01*
X179874500Y-99305343D01*
X179874500Y-99580927D01*
X179854815Y-99647966D01*
X179802011Y-99693721D01*
X179732853Y-99703665D01*
X179669297Y-99674640D01*
X179631523Y-99615862D01*
X179630725Y-99613021D01*
X179621877Y-99580000D01*
X179606739Y-99523504D01*
X179510568Y-99317266D01*
X179503953Y-99307818D01*
X179380046Y-99130859D01*
X179219140Y-98969953D01*
X179032735Y-98839432D01*
X178826497Y-98743261D01*
X178606689Y-98684364D01*
X178379999Y-98664531D01*
X178153310Y-98684364D01*
X177933502Y-98743261D01*
X177727264Y-98839432D01*
X177540859Y-98969953D01*
X177379953Y-99130859D01*
X177249432Y-99317264D01*
X177153261Y-99523502D01*
X177094364Y-99743310D01*
X177074531Y-99969999D01*
X177094364Y-100196689D01*
X177153261Y-100416497D01*
X177249432Y-100622735D01*
X177379953Y-100809140D01*
X177540859Y-100970046D01*
X177727264Y-101100567D01*
X177727265Y-101100567D01*
X177727266Y-101100568D01*
X177785865Y-101127893D01*
X177838304Y-101174065D01*
X177857456Y-101241259D01*
X177837240Y-101308140D01*
X177785866Y-101352656D01*
X177727522Y-101379863D01*
X177541180Y-101510341D01*
X177380341Y-101671180D01*
X177249865Y-101857519D01*
X177153733Y-102063673D01*
X177101128Y-102259999D01*
X177101128Y-102260000D01*
X177946314Y-102260000D01*
X177920507Y-102300156D01*
X177880000Y-102438111D01*
X177880000Y-102581889D01*
X177920507Y-102719844D01*
X177946314Y-102760000D01*
X177101128Y-102760000D01*
X177153733Y-102956326D01*
X177249865Y-103162480D01*
X177380341Y-103348819D01*
X177541180Y-103509658D01*
X177727519Y-103640134D01*
X177785865Y-103667342D01*
X177838304Y-103713514D01*
X177857456Y-103780708D01*
X177837240Y-103847589D01*
X177785866Y-103892105D01*
X177727267Y-103919430D01*
X177540859Y-104049953D01*
X177379953Y-104210859D01*
X177249432Y-104397264D01*
X177153261Y-104603502D01*
X177094364Y-104823310D01*
X177074531Y-105049999D01*
X177094364Y-105276689D01*
X177153261Y-105496497D01*
X177249432Y-105702735D01*
X177379953Y-105889140D01*
X177540859Y-106050046D01*
X177727263Y-106180566D01*
X177727266Y-106180568D01*
X177785275Y-106207618D01*
X177837714Y-106253791D01*
X177856865Y-106320985D01*
X177836649Y-106387866D01*
X177785275Y-106432382D01*
X177727263Y-106459433D01*
X177540859Y-106589953D01*
X177379953Y-106750859D01*
X177249432Y-106937264D01*
X177153261Y-107143502D01*
X177094364Y-107363310D01*
X177074531Y-107589999D01*
X177094364Y-107816689D01*
X177153261Y-108036497D01*
X177249432Y-108242735D01*
X177379953Y-108429140D01*
X177540859Y-108590046D01*
X177727263Y-108720566D01*
X177727266Y-108720568D01*
X177785275Y-108747618D01*
X177837714Y-108793791D01*
X177856865Y-108860985D01*
X177836649Y-108927866D01*
X177785275Y-108972382D01*
X177727263Y-108999433D01*
X177540859Y-109129953D01*
X177379953Y-109290859D01*
X177249432Y-109477264D01*
X177153261Y-109683502D01*
X177094364Y-109903310D01*
X177074531Y-110130000D01*
X177094364Y-110356689D01*
X177153261Y-110576497D01*
X177249432Y-110782735D01*
X177379953Y-110969140D01*
X177540859Y-111130046D01*
X177727263Y-111260566D01*
X177727266Y-111260568D01*
X177785275Y-111287618D01*
X177837714Y-111333791D01*
X177856865Y-111400985D01*
X177836649Y-111467866D01*
X177785275Y-111512382D01*
X177727263Y-111539433D01*
X177540859Y-111669953D01*
X177379953Y-111830859D01*
X177249432Y-112017264D01*
X177153261Y-112223502D01*
X177094364Y-112443310D01*
X177074531Y-112669999D01*
X177094364Y-112896689D01*
X177153261Y-113116497D01*
X177249432Y-113322735D01*
X177379953Y-113509140D01*
X177540859Y-113670046D01*
X177727263Y-113800566D01*
X177727266Y-113800568D01*
X177785275Y-113827618D01*
X177837714Y-113873791D01*
X177856865Y-113940985D01*
X177836649Y-114007866D01*
X177785275Y-114052382D01*
X177727263Y-114079433D01*
X177540859Y-114209953D01*
X177379953Y-114370859D01*
X177249432Y-114557264D01*
X177153261Y-114763502D01*
X177094364Y-114983310D01*
X177074531Y-115209999D01*
X177094364Y-115436689D01*
X177153261Y-115656497D01*
X177249432Y-115862735D01*
X177379953Y-116049140D01*
X177540859Y-116210046D01*
X177715766Y-116332516D01*
X177727266Y-116340568D01*
X177785275Y-116367618D01*
X177837714Y-116413791D01*
X177856865Y-116480985D01*
X177836649Y-116547866D01*
X177785275Y-116592382D01*
X177727263Y-116619433D01*
X177540859Y-116749953D01*
X177379953Y-116910859D01*
X177249432Y-117097264D01*
X177153261Y-117303502D01*
X177094364Y-117523310D01*
X177074531Y-117750000D01*
X177094364Y-117976689D01*
X177153261Y-118196497D01*
X177249432Y-118402735D01*
X177379953Y-118589140D01*
X177540859Y-118750046D01*
X177555074Y-118759999D01*
X177727266Y-118880568D01*
X177785273Y-118907617D01*
X177837713Y-118953789D01*
X177856865Y-119020982D01*
X177836650Y-119087864D01*
X177785276Y-119132380D01*
X177727266Y-119159431D01*
X177540859Y-119289953D01*
X177379953Y-119450859D01*
X177249432Y-119637264D01*
X177153261Y-119843502D01*
X177094364Y-120063310D01*
X177074531Y-120290000D01*
X177094364Y-120516689D01*
X177153261Y-120736497D01*
X177249432Y-120942735D01*
X177379953Y-121129140D01*
X177540859Y-121290046D01*
X177671779Y-121381716D01*
X177727266Y-121420568D01*
X177785275Y-121447618D01*
X177837714Y-121493791D01*
X177856865Y-121560985D01*
X177836649Y-121627866D01*
X177785275Y-121672382D01*
X177727263Y-121699433D01*
X177540859Y-121829953D01*
X177379953Y-121990859D01*
X177249432Y-122177264D01*
X177153261Y-122383502D01*
X177094364Y-122603310D01*
X177074531Y-122829999D01*
X177094364Y-123056689D01*
X177153261Y-123276497D01*
X177249432Y-123482735D01*
X177379953Y-123669140D01*
X177540859Y-123830046D01*
X177709008Y-123947784D01*
X177727266Y-123960568D01*
X177785275Y-123987618D01*
X177837714Y-124033791D01*
X177856865Y-124100985D01*
X177836649Y-124167866D01*
X177785275Y-124212382D01*
X177727263Y-124239433D01*
X177540859Y-124369953D01*
X177379953Y-124530859D01*
X177249432Y-124717264D01*
X177153261Y-124923502D01*
X177094364Y-125143310D01*
X177074531Y-125370000D01*
X177094364Y-125596689D01*
X177153261Y-125816497D01*
X177249432Y-126022735D01*
X177379953Y-126209140D01*
X177540859Y-126370046D01*
X177581188Y-126398284D01*
X177727266Y-126500568D01*
X177785273Y-126527617D01*
X177837713Y-126573789D01*
X177856865Y-126640982D01*
X177836650Y-126707864D01*
X177785276Y-126752380D01*
X177727266Y-126779431D01*
X177540859Y-126909953D01*
X177379953Y-127070859D01*
X177249432Y-127257264D01*
X177153261Y-127463502D01*
X177094364Y-127683310D01*
X177074531Y-127910000D01*
X177094364Y-128136689D01*
X177153261Y-128356497D01*
X177249432Y-128562735D01*
X177379953Y-128749140D01*
X177540859Y-128910046D01*
X177613514Y-128960919D01*
X177727266Y-129040568D01*
X177785275Y-129067618D01*
X177837714Y-129113791D01*
X177856865Y-129180985D01*
X177836649Y-129247866D01*
X177785275Y-129292382D01*
X177727263Y-129319433D01*
X177540859Y-129449953D01*
X177379953Y-129610859D01*
X177249432Y-129797264D01*
X177153261Y-130003502D01*
X177094364Y-130223310D01*
X177074531Y-130449999D01*
X177094364Y-130676689D01*
X177153261Y-130896497D01*
X177249432Y-131102735D01*
X177379953Y-131289140D01*
X177540859Y-131450046D01*
X177727263Y-131580566D01*
X177727266Y-131580568D01*
X177785275Y-131607618D01*
X177837714Y-131653791D01*
X177856865Y-131720985D01*
X177836649Y-131787866D01*
X177785275Y-131832382D01*
X177727263Y-131859433D01*
X177540859Y-131989953D01*
X177379953Y-132150859D01*
X177249432Y-132337264D01*
X177153261Y-132543502D01*
X177094364Y-132763310D01*
X177074531Y-132990000D01*
X177094364Y-133216689D01*
X177153261Y-133436497D01*
X177249432Y-133642735D01*
X177379953Y-133829140D01*
X177540859Y-133990046D01*
X177636863Y-134057268D01*
X177727266Y-134120568D01*
X177785275Y-134147618D01*
X177837714Y-134193791D01*
X177856865Y-134260985D01*
X177836649Y-134327866D01*
X177785275Y-134372382D01*
X177727263Y-134399433D01*
X177540859Y-134529953D01*
X177379953Y-134690859D01*
X177249432Y-134877264D01*
X177153261Y-135083502D01*
X177094364Y-135303310D01*
X177074531Y-135530000D01*
X164445468Y-135530000D01*
X164425635Y-135303308D01*
X164366739Y-135083504D01*
X164270568Y-134877266D01*
X164259280Y-134861144D01*
X164140046Y-134690859D01*
X163979140Y-134529953D01*
X163792733Y-134399431D01*
X163734725Y-134372382D01*
X163682285Y-134326210D01*
X163663133Y-134259017D01*
X163683348Y-134192135D01*
X163734725Y-134147618D01*
X163792734Y-134120568D01*
X163979139Y-133990047D01*
X164140047Y-133829139D01*
X164270568Y-133642734D01*
X164366739Y-133436496D01*
X164425635Y-133216692D01*
X164445468Y-132990000D01*
X164425635Y-132763308D01*
X164366739Y-132543504D01*
X164270568Y-132337266D01*
X164263459Y-132327112D01*
X164140046Y-132150859D01*
X163979140Y-131989953D01*
X163792733Y-131859431D01*
X163734725Y-131832382D01*
X163682285Y-131786210D01*
X163663133Y-131719017D01*
X163683348Y-131652135D01*
X163734725Y-131607618D01*
X163792734Y-131580568D01*
X163979139Y-131450047D01*
X164140047Y-131289139D01*
X164270568Y-131102734D01*
X164366739Y-130896496D01*
X164425635Y-130676692D01*
X164445468Y-130450000D01*
X164425635Y-130223308D01*
X164366739Y-130003504D01*
X164270568Y-129797266D01*
X164246675Y-129763142D01*
X164140046Y-129610859D01*
X163979140Y-129449953D01*
X163792733Y-129319431D01*
X163734725Y-129292382D01*
X163682285Y-129246210D01*
X163663133Y-129179017D01*
X163683348Y-129112135D01*
X163734725Y-129067618D01*
X163792734Y-129040568D01*
X163979139Y-128910047D01*
X164140047Y-128749139D01*
X164270568Y-128562734D01*
X164366739Y-128356496D01*
X164425635Y-128136692D01*
X164445468Y-127910000D01*
X164425635Y-127683308D01*
X164366739Y-127463504D01*
X164270568Y-127257266D01*
X164265831Y-127250500D01*
X164140046Y-127070859D01*
X163979140Y-126909953D01*
X163792733Y-126779431D01*
X163734725Y-126752382D01*
X163682285Y-126706210D01*
X163663133Y-126639017D01*
X163683348Y-126572135D01*
X163734725Y-126527618D01*
X163792734Y-126500568D01*
X163979139Y-126370047D01*
X164140047Y-126209139D01*
X164270568Y-126022734D01*
X164366739Y-125816496D01*
X164425635Y-125596692D01*
X164445468Y-125370000D01*
X164425635Y-125143308D01*
X164366739Y-124923504D01*
X164270568Y-124717266D01*
X164244622Y-124680210D01*
X164140046Y-124530859D01*
X163979140Y-124369953D01*
X163792736Y-124239433D01*
X163734723Y-124212381D01*
X163682284Y-124166208D01*
X163663133Y-124099014D01*
X163683349Y-124032133D01*
X163734721Y-123987619D01*
X163792734Y-123960568D01*
X163979139Y-123830047D01*
X164140047Y-123669139D01*
X164270568Y-123482734D01*
X164366739Y-123276496D01*
X164425635Y-123056692D01*
X164445468Y-122830000D01*
X164425635Y-122603308D01*
X164366739Y-122383504D01*
X164270568Y-122177266D01*
X164267504Y-122172889D01*
X164140046Y-121990859D01*
X163979140Y-121829953D01*
X163792736Y-121699433D01*
X163734723Y-121672381D01*
X163682284Y-121626208D01*
X163663133Y-121559014D01*
X163683349Y-121492133D01*
X163734721Y-121447619D01*
X163792734Y-121420568D01*
X163979139Y-121290047D01*
X164140047Y-121129139D01*
X164270568Y-120942734D01*
X164366739Y-120736496D01*
X164425635Y-120516692D01*
X164445468Y-120290000D01*
X164425635Y-120063308D01*
X164366739Y-119843504D01*
X164270568Y-119637266D01*
X164235710Y-119587482D01*
X164140046Y-119450859D01*
X163979140Y-119289953D01*
X163792736Y-119159433D01*
X163734723Y-119132381D01*
X163682284Y-119086208D01*
X163663133Y-119019014D01*
X163683349Y-118952133D01*
X163734721Y-118907619D01*
X163792734Y-118880568D01*
X163979139Y-118750047D01*
X164140047Y-118589139D01*
X164270568Y-118402734D01*
X164366739Y-118196496D01*
X164425635Y-117976692D01*
X164445468Y-117750000D01*
X164425635Y-117523308D01*
X164366739Y-117303504D01*
X164270568Y-117097266D01*
X164235710Y-117047482D01*
X164140046Y-116910859D01*
X163979140Y-116749953D01*
X163792733Y-116619431D01*
X163734725Y-116592382D01*
X163682285Y-116546210D01*
X163663133Y-116479017D01*
X163683348Y-116412135D01*
X163734725Y-116367618D01*
X163792734Y-116340568D01*
X163979139Y-116210047D01*
X164140047Y-116049139D01*
X164270568Y-115862734D01*
X164366739Y-115656496D01*
X164425635Y-115436692D01*
X164445468Y-115210000D01*
X164425635Y-114983308D01*
X164366739Y-114763504D01*
X164270568Y-114557266D01*
X164152648Y-114388856D01*
X164140046Y-114370859D01*
X163979140Y-114209953D01*
X163792733Y-114079431D01*
X163734725Y-114052382D01*
X163682285Y-114006210D01*
X163663133Y-113939017D01*
X163683348Y-113872135D01*
X163734725Y-113827618D01*
X163792734Y-113800568D01*
X163979139Y-113670047D01*
X164140047Y-113509139D01*
X164270568Y-113322734D01*
X164366739Y-113116496D01*
X164425635Y-112896692D01*
X164445468Y-112670000D01*
X164425635Y-112443308D01*
X164366739Y-112223504D01*
X164270568Y-112017266D01*
X164140047Y-111830861D01*
X164140046Y-111830859D01*
X163979140Y-111669953D01*
X163792736Y-111539433D01*
X163734723Y-111512381D01*
X163682284Y-111466208D01*
X163663133Y-111399014D01*
X163683349Y-111332133D01*
X163734721Y-111287619D01*
X163792734Y-111260568D01*
X163979139Y-111130047D01*
X164140047Y-110969139D01*
X164270568Y-110782734D01*
X164366739Y-110576496D01*
X164425635Y-110356692D01*
X164445468Y-110130000D01*
X164425635Y-109903308D01*
X164366739Y-109683504D01*
X164270568Y-109477266D01*
X164146535Y-109300126D01*
X164140046Y-109290859D01*
X163979140Y-109129953D01*
X163792736Y-108999433D01*
X163734723Y-108972381D01*
X163734132Y-108972105D01*
X163681695Y-108925933D01*
X163662543Y-108858739D01*
X163682759Y-108791858D01*
X163734135Y-108747342D01*
X163792479Y-108720135D01*
X163978819Y-108589658D01*
X164139658Y-108428819D01*
X164270134Y-108242480D01*
X164366266Y-108036326D01*
X164418872Y-107840000D01*
X163573686Y-107840000D01*
X163599493Y-107799844D01*
X163640000Y-107661889D01*
X163640000Y-107518111D01*
X163599493Y-107380156D01*
X163573686Y-107340000D01*
X164418872Y-107340000D01*
X164418871Y-107339999D01*
X164366266Y-107143673D01*
X164270134Y-106937519D01*
X164139658Y-106751180D01*
X163978819Y-106590341D01*
X163792482Y-106459866D01*
X163734133Y-106432657D01*
X163681694Y-106386484D01*
X163662543Y-106319290D01*
X163682759Y-106252409D01*
X163734134Y-106207893D01*
X163792734Y-106180568D01*
X163979139Y-106050047D01*
X164140047Y-105889139D01*
X164270568Y-105702734D01*
X164366739Y-105496496D01*
X164425635Y-105276692D01*
X164445468Y-105050000D01*
X164425635Y-104823308D01*
X164366739Y-104603504D01*
X164270568Y-104397266D01*
X164140047Y-104210861D01*
X164140046Y-104210859D01*
X163979140Y-104049953D01*
X163792733Y-103919431D01*
X163734725Y-103892382D01*
X163682285Y-103846210D01*
X163663133Y-103779017D01*
X163683348Y-103712135D01*
X163734725Y-103667618D01*
X163735317Y-103667342D01*
X163792734Y-103640568D01*
X163979139Y-103510047D01*
X164140047Y-103349139D01*
X164270568Y-103162734D01*
X164366739Y-102956496D01*
X164425635Y-102736692D01*
X164445468Y-102510000D01*
X164439260Y-102439048D01*
X164432362Y-102360203D01*
X164425635Y-102283308D01*
X164366739Y-102063504D01*
X164270568Y-101857266D01*
X164166850Y-101709139D01*
X164140046Y-101670859D01*
X163979140Y-101509953D01*
X163954537Y-101492726D01*
X163910912Y-101438150D01*
X163903718Y-101368651D01*
X163935241Y-101306296D01*
X163995470Y-101270882D01*
X164012401Y-101267862D01*
X164047483Y-101264091D01*
X164182331Y-101213796D01*
X164297546Y-101127546D01*
X164383796Y-101012331D01*
X164434091Y-100877483D01*
X164440500Y-100817873D01*
X164440499Y-99122128D01*
X164434091Y-99062517D01*
X164383796Y-98927669D01*
X164297546Y-98812454D01*
X164182331Y-98726204D01*
X164047483Y-98675909D01*
X163987873Y-98669500D01*
X163984550Y-98669500D01*
X162295439Y-98669500D01*
X162295420Y-98669500D01*
X162292128Y-98669501D01*
X162288848Y-98669853D01*
X162288840Y-98669854D01*
X162232515Y-98675909D01*
X162097669Y-98726204D01*
X161982454Y-98812454D01*
X161896204Y-98927668D01*
X161845910Y-99062515D01*
X161845909Y-99062517D01*
X161839500Y-99122127D01*
X161839500Y-99125448D01*
X161839500Y-99125449D01*
X161839500Y-100814560D01*
X161839500Y-100814578D01*
X161839501Y-100817872D01*
X161839853Y-100821152D01*
X161839854Y-100821159D01*
X161845626Y-100874851D01*
X161845909Y-100877483D01*
X161896204Y-101012331D01*
X161982454Y-101127546D01*
X162097669Y-101213796D01*
X162232517Y-101264091D01*
X162267594Y-101267862D01*
X162332143Y-101294598D01*
X162371993Y-101351989D01*
X162374488Y-101421814D01*
X162338837Y-101481904D01*
X162325463Y-101492725D01*
X162300861Y-101509951D01*
X162139953Y-101670859D01*
X162009432Y-101857264D01*
X161913261Y-102063502D01*
X161854364Y-102283310D01*
X161834531Y-102509999D01*
X161854364Y-102736689D01*
X161913261Y-102956497D01*
X162009432Y-103162735D01*
X162139953Y-103349140D01*
X162300859Y-103510046D01*
X162487263Y-103640566D01*
X162487266Y-103640568D01*
X162544683Y-103667342D01*
X162545275Y-103667618D01*
X162597714Y-103713791D01*
X162616865Y-103780985D01*
X162596649Y-103847866D01*
X162545275Y-103892382D01*
X162487263Y-103919433D01*
X162300859Y-104049953D01*
X162139953Y-104210859D01*
X162009432Y-104397264D01*
X161913261Y-104603502D01*
X161854364Y-104823310D01*
X161834531Y-105050000D01*
X161854364Y-105276689D01*
X161913261Y-105496497D01*
X162009432Y-105702735D01*
X162139953Y-105889140D01*
X162300859Y-106050046D01*
X162487264Y-106180567D01*
X162487265Y-106180567D01*
X162487266Y-106180568D01*
X162545865Y-106207893D01*
X162598304Y-106254065D01*
X162617456Y-106321259D01*
X162597240Y-106388140D01*
X162545866Y-106432656D01*
X162487522Y-106459863D01*
X162301180Y-106590341D01*
X162140341Y-106751180D01*
X162009865Y-106937519D01*
X161913733Y-107143673D01*
X161861128Y-107339999D01*
X161861128Y-107340000D01*
X162706314Y-107340000D01*
X162680507Y-107380156D01*
X162640000Y-107518111D01*
X162640000Y-107661889D01*
X162680507Y-107799844D01*
X162706314Y-107840000D01*
X161861128Y-107840000D01*
X161913733Y-108036326D01*
X162009865Y-108242480D01*
X162140341Y-108428819D01*
X162301180Y-108589658D01*
X162487519Y-108720134D01*
X162545865Y-108747342D01*
X162598304Y-108793514D01*
X162617456Y-108860708D01*
X162597240Y-108927589D01*
X162545866Y-108972105D01*
X162487267Y-108999430D01*
X162300859Y-109129953D01*
X162139953Y-109290859D01*
X162009432Y-109477264D01*
X161913261Y-109683502D01*
X161854364Y-109903310D01*
X161834531Y-110129999D01*
X161854364Y-110356689D01*
X161913261Y-110576497D01*
X162009432Y-110782735D01*
X162139953Y-110969140D01*
X162300859Y-111130046D01*
X162487263Y-111260566D01*
X162487266Y-111260568D01*
X162545273Y-111287617D01*
X162597713Y-111333789D01*
X162616865Y-111400982D01*
X162596650Y-111467864D01*
X162545276Y-111512380D01*
X162487266Y-111539431D01*
X162300859Y-111669953D01*
X162139953Y-111830859D01*
X162009432Y-112017264D01*
X161913261Y-112223502D01*
X161854364Y-112443310D01*
X161834531Y-112670000D01*
X161854364Y-112896689D01*
X161913261Y-113116497D01*
X162009432Y-113322735D01*
X162139953Y-113509140D01*
X162300859Y-113670046D01*
X162487263Y-113800566D01*
X162487266Y-113800568D01*
X162545273Y-113827617D01*
X162597713Y-113873789D01*
X162616865Y-113940982D01*
X162596650Y-114007864D01*
X162545276Y-114052380D01*
X162487266Y-114079431D01*
X162300859Y-114209953D01*
X162139953Y-114370859D01*
X162009432Y-114557264D01*
X161913261Y-114763502D01*
X161854364Y-114983310D01*
X161834531Y-115210000D01*
X161854364Y-115436689D01*
X161913261Y-115656497D01*
X162009432Y-115862735D01*
X162139953Y-116049140D01*
X162300859Y-116210046D01*
X162475766Y-116332516D01*
X162487266Y-116340568D01*
X162545275Y-116367618D01*
X162597714Y-116413791D01*
X162616865Y-116480985D01*
X162596649Y-116547866D01*
X162545275Y-116592382D01*
X162487263Y-116619433D01*
X162300859Y-116749953D01*
X162139953Y-116910859D01*
X162009432Y-117097264D01*
X161932193Y-117262904D01*
X161886020Y-117315343D01*
X161819811Y-117334499D01*
X161165100Y-117334499D01*
X161098061Y-117314814D01*
X161052306Y-117262010D01*
X161042362Y-117192852D01*
X161048918Y-117167165D01*
X161093599Y-117047370D01*
X161099645Y-116991131D01*
X161100000Y-116984517D01*
X161100000Y-116939999D01*
X157983552Y-116939999D01*
X157362681Y-117560870D01*
X157301358Y-117594355D01*
X157231666Y-117589371D01*
X157187319Y-117560870D01*
X157009128Y-117382679D01*
X156975643Y-117321356D01*
X156978993Y-117274515D01*
X157106301Y-117274515D01*
X157116105Y-117355260D01*
X157162310Y-117422199D01*
X157234331Y-117459999D01*
X157295035Y-117459999D01*
X157353974Y-117445472D01*
X157414856Y-117391535D01*
X157443699Y-117315483D01*
X157433895Y-117234738D01*
X157387690Y-117167799D01*
X157315669Y-117129999D01*
X157254965Y-117129999D01*
X157196026Y-117144526D01*
X157135144Y-117198463D01*
X157106301Y-117274515D01*
X156978993Y-117274515D01*
X156980627Y-117251664D01*
X157009128Y-117207317D01*
X157615118Y-116601327D01*
X157676441Y-116567842D01*
X157746133Y-116572826D01*
X157790480Y-116601327D01*
X157859999Y-116670846D01*
X157860000Y-116670845D01*
X157860000Y-116563999D01*
X157879685Y-116496960D01*
X157932489Y-116451205D01*
X157984000Y-116439999D01*
X159250000Y-116439999D01*
X159250000Y-115939999D01*
X159750000Y-115939999D01*
X159750000Y-116439999D01*
X161100000Y-116439999D01*
X161100000Y-116395480D01*
X161099645Y-116388866D01*
X161093599Y-116332627D01*
X161043352Y-116197909D01*
X160957188Y-116082810D01*
X160842089Y-115996646D01*
X160707371Y-115946399D01*
X160651132Y-115940353D01*
X160644518Y-115939999D01*
X159750000Y-115939999D01*
X159250000Y-115939999D01*
X158633188Y-115939999D01*
X158566149Y-115920314D01*
X158533922Y-115890310D01*
X158457191Y-115787811D01*
X158342089Y-115701646D01*
X158207371Y-115651399D01*
X158151132Y-115645353D01*
X158144518Y-115644999D01*
X156875000Y-115644999D01*
X156875000Y-121544999D01*
X158144518Y-121544999D01*
X158151132Y-121544644D01*
X158207371Y-121538598D01*
X158342089Y-121488351D01*
X158457189Y-121402187D01*
X158533547Y-121300187D01*
X158589481Y-121258316D01*
X158632811Y-121250498D01*
X158731408Y-121250498D01*
X158798447Y-121270183D01*
X158844202Y-121322987D01*
X158854146Y-121392145D01*
X158825121Y-121455701D01*
X158819089Y-121462179D01*
X158808865Y-121472402D01*
X158727130Y-121610608D01*
X158682335Y-121764794D01*
X158679691Y-121798385D01*
X158679690Y-121798401D01*
X158679500Y-121800820D01*
X158679500Y-121803264D01*
X158679500Y-121803265D01*
X158679500Y-122196757D01*
X158679500Y-122196782D01*
X158679501Y-122199181D01*
X158679689Y-122201572D01*
X158679690Y-122201594D01*
X158682335Y-122235206D01*
X158727130Y-122389393D01*
X158761418Y-122447371D01*
X158778601Y-122515095D01*
X158761419Y-122573612D01*
X158727593Y-122630810D01*
X158687155Y-122770000D01*
X158687155Y-122770001D01*
X159239591Y-122770001D01*
X159247821Y-122770324D01*
X159245955Y-122770214D01*
X159248375Y-122770308D01*
X159250819Y-122770501D01*
X159749180Y-122770500D01*
X159751596Y-122770309D01*
X159754038Y-122770214D01*
X159752171Y-122770323D01*
X159760392Y-122770001D01*
X160312844Y-122770001D01*
X160272404Y-122630805D01*
X160238581Y-122573613D01*
X160221398Y-122505889D01*
X160238579Y-122447373D01*
X160272869Y-122389394D01*
X160317665Y-122235205D01*
X160320500Y-122199182D01*
X160320499Y-121800821D01*
X160317665Y-121764797D01*
X160272869Y-121610608D01*
X160191135Y-121472403D01*
X160191132Y-121472400D01*
X160180910Y-121462177D01*
X160147426Y-121400853D01*
X160152412Y-121331162D01*
X160194285Y-121275229D01*
X160259750Y-121250814D01*
X160268593Y-121250498D01*
X160644561Y-121250498D01*
X160647872Y-121250498D01*
X160707483Y-121244090D01*
X160842331Y-121193795D01*
X160957546Y-121107545D01*
X161043796Y-120992330D01*
X161094091Y-120857482D01*
X161100500Y-120797872D01*
X161100499Y-120202127D01*
X161094091Y-120142516D01*
X161049450Y-120022829D01*
X161044467Y-119953141D01*
X161077952Y-119891818D01*
X161139275Y-119858333D01*
X161165633Y-119855499D01*
X161748447Y-119855499D01*
X161815486Y-119875184D01*
X161861241Y-119927988D01*
X161871185Y-119997146D01*
X161868222Y-120011587D01*
X161865380Y-120022199D01*
X161854364Y-120063309D01*
X161834531Y-120290000D01*
X161854364Y-120516689D01*
X161913261Y-120736497D01*
X162009432Y-120942735D01*
X162139953Y-121129140D01*
X162300859Y-121290046D01*
X162431779Y-121381716D01*
X162487266Y-121420568D01*
X162545275Y-121447618D01*
X162597714Y-121493791D01*
X162616865Y-121560985D01*
X162596649Y-121627866D01*
X162545275Y-121672382D01*
X162487263Y-121699433D01*
X162300859Y-121829953D01*
X162139953Y-121990859D01*
X162009432Y-122177264D01*
X161913261Y-122383502D01*
X161854364Y-122603310D01*
X161834531Y-122830000D01*
X161854364Y-123056689D01*
X161913261Y-123276497D01*
X162009432Y-123482735D01*
X162139953Y-123669140D01*
X162300859Y-123830046D01*
X162469008Y-123947784D01*
X162487266Y-123960568D01*
X162545275Y-123987618D01*
X162597714Y-124033791D01*
X162616865Y-124100985D01*
X162596649Y-124167866D01*
X162545275Y-124212382D01*
X162487263Y-124239433D01*
X162300859Y-124369953D01*
X162139953Y-124530859D01*
X162009432Y-124717264D01*
X161913261Y-124923502D01*
X161854364Y-125143310D01*
X161834531Y-125370000D01*
X161854364Y-125596689D01*
X161913261Y-125816497D01*
X162009432Y-126022735D01*
X162139953Y-126209140D01*
X162300859Y-126370046D01*
X162341188Y-126398284D01*
X162487266Y-126500568D01*
X162545273Y-126527617D01*
X162597713Y-126573789D01*
X162616865Y-126640982D01*
X162596650Y-126707864D01*
X162545276Y-126752380D01*
X162487266Y-126779431D01*
X162300859Y-126909953D01*
X162139954Y-127070858D01*
X162125416Y-127091622D01*
X162070839Y-127135248D01*
X162023840Y-127144500D01*
X161165100Y-127144500D01*
X161098061Y-127124815D01*
X161052306Y-127072011D01*
X161042362Y-127002853D01*
X161048918Y-126977166D01*
X161093599Y-126857371D01*
X161099645Y-126801132D01*
X161100000Y-126794518D01*
X161100000Y-126750000D01*
X157983552Y-126750000D01*
X157362681Y-127370872D01*
X157301358Y-127404357D01*
X157231666Y-127399373D01*
X157187319Y-127370872D01*
X157009128Y-127192681D01*
X156975643Y-127131358D01*
X156978993Y-127084516D01*
X157106301Y-127084516D01*
X157116105Y-127165261D01*
X157162310Y-127232200D01*
X157234331Y-127270000D01*
X157295035Y-127270000D01*
X157353974Y-127255473D01*
X157414856Y-127201536D01*
X157443699Y-127125484D01*
X157433895Y-127044739D01*
X157387690Y-126977800D01*
X157315669Y-126940000D01*
X157254965Y-126940000D01*
X157196026Y-126954527D01*
X157135144Y-127008464D01*
X157106301Y-127084516D01*
X156978993Y-127084516D01*
X156980627Y-127061666D01*
X157009128Y-127017319D01*
X157615118Y-126411328D01*
X157676441Y-126377843D01*
X157746132Y-126382827D01*
X157790480Y-126411328D01*
X157859999Y-126480847D01*
X157860000Y-126480846D01*
X157860000Y-126374000D01*
X157879685Y-126306961D01*
X157932489Y-126261206D01*
X157984000Y-126250000D01*
X159250000Y-126250000D01*
X159250000Y-125750000D01*
X159750000Y-125750000D01*
X159750000Y-126250000D01*
X161100000Y-126250000D01*
X161100000Y-126205481D01*
X161099645Y-126198867D01*
X161093599Y-126142628D01*
X161043352Y-126007910D01*
X160957188Y-125892811D01*
X160842089Y-125806647D01*
X160707371Y-125756400D01*
X160651132Y-125750354D01*
X160644518Y-125750000D01*
X159750000Y-125750000D01*
X159250000Y-125750000D01*
X158633188Y-125750000D01*
X158566149Y-125730315D01*
X158533922Y-125700311D01*
X158457191Y-125597812D01*
X158342089Y-125511647D01*
X158207371Y-125461400D01*
X158151132Y-125455354D01*
X158144518Y-125455000D01*
X156875000Y-125455000D01*
X156875000Y-131355000D01*
X156375000Y-131355000D01*
X156375000Y-125455000D01*
X155105482Y-125455000D01*
X155098867Y-125455354D01*
X155042628Y-125461400D01*
X154907910Y-125511647D01*
X154792810Y-125597811D01*
X154716454Y-125699811D01*
X154660520Y-125741682D01*
X154617187Y-125749500D01*
X154499500Y-125749500D01*
X154432461Y-125729815D01*
X154386706Y-125677011D01*
X154375500Y-125625500D01*
X154375500Y-123270001D01*
X158687156Y-123270001D01*
X158727595Y-123409196D01*
X158809264Y-123547291D01*
X158922709Y-123660736D01*
X159060807Y-123742407D01*
X159214872Y-123787167D01*
X159250000Y-123789931D01*
X159250000Y-123270001D01*
X159750000Y-123270001D01*
X159750000Y-123789931D01*
X159785127Y-123787167D01*
X159939192Y-123742407D01*
X160077290Y-123660736D01*
X160190735Y-123547291D01*
X160272404Y-123409196D01*
X160312844Y-123270001D01*
X159750000Y-123270001D01*
X159250000Y-123270001D01*
X158687156Y-123270001D01*
X154375500Y-123270001D01*
X154375500Y-122448687D01*
X154395185Y-122381648D01*
X154407350Y-122365714D01*
X154411465Y-122361144D01*
X154482533Y-122282216D01*
X154545654Y-122172888D01*
X154577179Y-122118284D01*
X154618582Y-121990859D01*
X154635674Y-121938256D01*
X154655460Y-121750000D01*
X154635674Y-121561744D01*
X154635672Y-121561740D01*
X154634311Y-121548782D01*
X154636982Y-121548501D01*
X154635528Y-121497596D01*
X154671608Y-121437763D01*
X154734308Y-121406934D01*
X154803723Y-121414898D01*
X154829765Y-121429851D01*
X154907911Y-121488351D01*
X155042628Y-121538598D01*
X155098867Y-121544644D01*
X155105482Y-121544999D01*
X156375000Y-121544999D01*
X156375000Y-115644999D01*
X155105482Y-115644999D01*
X155098867Y-115645353D01*
X155042628Y-115651399D01*
X154907910Y-115701646D01*
X154792810Y-115787810D01*
X154716454Y-115889810D01*
X154660520Y-115931681D01*
X154617187Y-115939499D01*
X154499500Y-115939499D01*
X154432461Y-115919814D01*
X154386706Y-115867010D01*
X154375500Y-115815499D01*
X154375500Y-110140185D01*
X154395185Y-110073146D01*
X154447989Y-110027391D01*
X154517147Y-110017447D01*
X154569352Y-110037732D01*
X154612516Y-110067161D01*
X154851533Y-110182265D01*
X155105034Y-110260461D01*
X155367356Y-110300000D01*
X155632644Y-110300000D01*
X155894965Y-110260461D01*
X156148469Y-110182265D01*
X156387481Y-110067163D01*
X156563560Y-109947112D01*
X155641366Y-109024918D01*
X155645161Y-109024373D01*
X155778562Y-108963451D01*
X155889395Y-108867413D01*
X155968682Y-108744040D01*
X155991133Y-108667580D01*
X156916355Y-109592803D01*
X156966543Y-109529870D01*
X157099186Y-109300126D01*
X157196105Y-109053182D01*
X157255138Y-108794542D01*
X157274963Y-108529999D01*
X157255138Y-108265457D01*
X157196105Y-108006817D01*
X157099186Y-107759873D01*
X156966543Y-107530128D01*
X156916355Y-107467195D01*
X155991132Y-108392418D01*
X155968682Y-108315960D01*
X155889395Y-108192587D01*
X155778562Y-108096549D01*
X155645161Y-108035627D01*
X155641365Y-108035081D01*
X156563560Y-107112886D01*
X156387481Y-106992836D01*
X156148469Y-106877734D01*
X155894965Y-106799538D01*
X155632644Y-106760000D01*
X155367356Y-106760000D01*
X155105034Y-106799538D01*
X154851533Y-106877734D01*
X154612517Y-106992837D01*
X154569351Y-107022268D01*
X154502871Y-107043768D01*
X154435322Y-107025914D01*
X154388148Y-106974373D01*
X154375500Y-106919814D01*
X154375500Y-102947576D01*
X154395185Y-102880537D01*
X154447989Y-102834782D01*
X154517147Y-102824838D01*
X154580703Y-102853863D01*
X154591647Y-102864601D01*
X154644129Y-102922888D01*
X154644130Y-102922889D01*
X154797269Y-103034151D01*
X154970197Y-103111144D01*
X155155352Y-103150500D01*
X155155354Y-103150500D01*
X155344648Y-103150500D01*
X155468083Y-103124262D01*
X155529803Y-103111144D01*
X155702730Y-103034151D01*
X155735971Y-103010000D01*
X155855870Y-102922889D01*
X155982533Y-102782216D01*
X156077179Y-102618284D01*
X156085469Y-102592771D01*
X156135674Y-102438256D01*
X156155460Y-102250000D01*
X156135674Y-102061744D01*
X156135672Y-102061740D01*
X156134311Y-102048782D01*
X156135424Y-102048664D01*
X156134362Y-102035142D01*
X156131634Y-102035400D01*
X156129489Y-102012712D01*
X156126050Y-101976324D01*
X156125500Y-101964655D01*
X156125500Y-101466878D01*
X157949500Y-101466878D01*
X157949501Y-101470008D01*
X157949820Y-101473140D01*
X157949821Y-101473141D01*
X157960000Y-101572796D01*
X158015186Y-101739334D01*
X158107288Y-101888657D01*
X158231342Y-102012711D01*
X158260887Y-102030934D01*
X158380666Y-102104814D01*
X158483778Y-102138982D01*
X158547202Y-102159999D01*
X158646858Y-102170180D01*
X158646859Y-102170180D01*
X158649991Y-102170500D01*
X159850008Y-102170499D01*
X159952797Y-102159999D01*
X160119334Y-102104814D01*
X160268656Y-102012712D01*
X160392712Y-101888656D01*
X160484814Y-101739334D01*
X160539999Y-101572797D01*
X160550500Y-101470009D01*
X160550499Y-100269992D01*
X160539999Y-100167203D01*
X160484814Y-100000666D01*
X160427592Y-99907895D01*
X160392711Y-99851342D01*
X160268657Y-99727288D01*
X160119334Y-99635186D01*
X159952797Y-99580000D01*
X159853141Y-99569819D01*
X159853122Y-99569818D01*
X159850009Y-99569500D01*
X159846860Y-99569500D01*
X158653140Y-99569500D01*
X158653120Y-99569500D01*
X158649992Y-99569501D01*
X158646860Y-99569820D01*
X158646858Y-99569821D01*
X158547203Y-99580000D01*
X158380665Y-99635186D01*
X158231342Y-99727288D01*
X158107288Y-99851342D01*
X158015186Y-100000665D01*
X157960000Y-100167202D01*
X157949819Y-100266858D01*
X157949817Y-100266878D01*
X157949500Y-100269991D01*
X157949500Y-100273138D01*
X157949500Y-100273139D01*
X157949500Y-101466859D01*
X157949500Y-101466878D01*
X156125500Y-101466878D01*
X156125500Y-100719597D01*
X156145185Y-100652558D01*
X156195699Y-100607877D01*
X156239914Y-100586584D01*
X156377704Y-100520228D01*
X156594479Y-100372433D01*
X156594482Y-100372429D01*
X156594485Y-100372428D01*
X156731729Y-100245084D01*
X156786805Y-100193981D01*
X156950386Y-99988857D01*
X157081568Y-99761643D01*
X157177420Y-99517416D01*
X157235802Y-99261630D01*
X157255408Y-99000000D01*
X157235802Y-98738370D01*
X157177420Y-98482584D01*
X157172208Y-98469305D01*
X157128138Y-98357016D01*
X157081568Y-98238357D01*
X156950386Y-98011143D01*
X156786805Y-97806019D01*
X156777156Y-97797066D01*
X156594485Y-97627571D01*
X156577170Y-97615766D01*
X156377704Y-97479772D01*
X156141323Y-97365937D01*
X155890615Y-97288604D01*
X155767181Y-97269999D01*
X157944531Y-97269999D01*
X157964364Y-97496689D01*
X158023261Y-97716497D01*
X158119432Y-97922735D01*
X158249953Y-98109140D01*
X158410859Y-98270046D01*
X158597264Y-98400567D01*
X158597265Y-98400567D01*
X158597266Y-98400568D01*
X158803504Y-98496739D01*
X159023308Y-98555635D01*
X159250000Y-98575468D01*
X159476692Y-98555635D01*
X159696496Y-98496739D01*
X159902734Y-98400568D01*
X160089139Y-98270047D01*
X160250047Y-98109139D01*
X160380568Y-97922734D01*
X160476739Y-97716496D01*
X160535635Y-97496692D01*
X160555468Y-97270000D01*
X160535635Y-97043308D01*
X160476739Y-96823504D01*
X160380568Y-96617266D01*
X160368129Y-96599500D01*
X160250046Y-96430859D01*
X160089140Y-96269953D01*
X159902735Y-96139432D01*
X159696497Y-96043261D01*
X159476689Y-95984364D01*
X159250000Y-95964531D01*
X159023310Y-95984364D01*
X158803502Y-96043261D01*
X158597264Y-96139432D01*
X158410859Y-96269953D01*
X158249953Y-96430859D01*
X158119432Y-96617264D01*
X158023261Y-96823502D01*
X157964364Y-97043310D01*
X157944531Y-97269999D01*
X155767181Y-97269999D01*
X155631182Y-97249500D01*
X155368818Y-97249500D01*
X155109385Y-97288604D01*
X154858676Y-97365937D01*
X154808945Y-97389886D01*
X154740004Y-97401237D01*
X154675870Y-97373514D01*
X154637214Y-97316483D01*
X154577179Y-97131715D01*
X154482533Y-96967783D01*
X154355870Y-96827110D01*
X154202730Y-96715848D01*
X154029802Y-96638855D01*
X153844648Y-96599500D01*
X153844646Y-96599500D01*
X153655354Y-96599500D01*
X153655352Y-96599500D01*
X153470197Y-96638855D01*
X153297269Y-96715848D01*
X153144129Y-96827110D01*
X153017466Y-96967783D01*
X152922820Y-97131715D01*
X152864326Y-97311742D01*
X152844540Y-97500000D01*
X152864326Y-97688257D01*
X152922820Y-97868284D01*
X153017464Y-98032213D01*
X153017467Y-98032216D01*
X153086730Y-98109140D01*
X153092650Y-98115714D01*
X153122880Y-98178706D01*
X153124500Y-98198687D01*
X153124500Y-100513870D01*
X153104815Y-100580909D01*
X153052011Y-100626664D01*
X152982853Y-100636608D01*
X152919297Y-100607583D01*
X152882569Y-100552188D01*
X152827179Y-100381715D01*
X152732533Y-100217783D01*
X152605870Y-100077110D01*
X152452730Y-99965848D01*
X152279802Y-99888855D01*
X152094648Y-99849500D01*
X152094646Y-99849500D01*
X151905354Y-99849500D01*
X151905352Y-99849500D01*
X151720197Y-99888855D01*
X151547269Y-99965848D01*
X151394129Y-100077110D01*
X151267466Y-100217783D01*
X151172820Y-100381715D01*
X151114326Y-100561742D01*
X151094540Y-100750000D01*
X151114326Y-100938257D01*
X151172820Y-101118284D01*
X151267464Y-101282213D01*
X151342650Y-101365714D01*
X151372880Y-101428706D01*
X151374500Y-101448687D01*
X151374500Y-114101382D01*
X151354815Y-114168421D01*
X151302011Y-114214176D01*
X151232853Y-114224120D01*
X151200064Y-114214662D01*
X151096206Y-114168421D01*
X151029803Y-114138856D01*
X151029802Y-114138855D01*
X151029798Y-114138854D01*
X150844648Y-114099500D01*
X150844646Y-114099500D01*
X150655354Y-114099500D01*
X150655352Y-114099500D01*
X150470197Y-114138855D01*
X150297269Y-114215848D01*
X150144129Y-114327110D01*
X150017466Y-114467783D01*
X149922820Y-114631715D01*
X149864326Y-114811742D01*
X149844540Y-115000000D01*
X145250500Y-115000000D01*
X145250500Y-98067764D01*
X146895787Y-98067764D01*
X146925413Y-98337016D01*
X146945203Y-98412712D01*
X146993928Y-98599088D01*
X147070331Y-98778878D01*
X147099871Y-98848392D01*
X147240982Y-99079611D01*
X147414253Y-99287818D01*
X147414255Y-99287820D01*
X147615998Y-99468582D01*
X147841910Y-99618044D01*
X147948211Y-99667876D01*
X148087177Y-99733021D01*
X148299104Y-99796780D01*
X148346569Y-99811060D01*
X148614561Y-99850500D01*
X148614564Y-99850500D01*
X148815369Y-99850500D01*
X148817631Y-99850500D01*
X149020156Y-99835677D01*
X149284553Y-99776780D01*
X149537558Y-99680014D01*
X149773777Y-99547441D01*
X149988177Y-99381888D01*
X150176186Y-99186881D01*
X150333799Y-98966579D01*
X150457656Y-98725675D01*
X150545118Y-98469305D01*
X150594319Y-98202933D01*
X150604212Y-97932235D01*
X150574586Y-97662982D01*
X150506072Y-97400912D01*
X150400130Y-97151610D01*
X150259018Y-96920390D01*
X150259017Y-96920388D01*
X150085746Y-96712181D01*
X150042173Y-96673139D01*
X149884002Y-96531418D01*
X149658090Y-96381956D01*
X149658086Y-96381954D01*
X149412822Y-96266978D01*
X149153437Y-96188941D01*
X149153431Y-96188940D01*
X148885439Y-96149500D01*
X148682369Y-96149500D01*
X148680120Y-96149664D01*
X148680109Y-96149665D01*
X148479843Y-96164322D01*
X148215449Y-96223219D01*
X147962441Y-96319986D01*
X147726223Y-96452559D01*
X147511825Y-96618109D01*
X147323813Y-96813120D01*
X147166201Y-97033420D01*
X147042342Y-97274329D01*
X146954881Y-97530695D01*
X146905680Y-97797066D01*
X146895787Y-98067764D01*
X145250500Y-98067764D01*
X145250500Y-94394500D01*
X145270185Y-94327461D01*
X145322989Y-94281706D01*
X145374500Y-94270500D01*
X195125500Y-94270500D01*
X195192539Y-94290185D01*
G37*
%TD.AperFunction*%
%TD*%
M02*
