%TF.GenerationSoftware,KiCad,Pcbnew,7.0.2*%
%TF.CreationDate,2023-08-25T16:22:19-05:00*%
%TF.ProjectId,ziggy,7a696767-792e-46b6-9963-61645f706362,rev?*%
%TF.SameCoordinates,Original*%
%TF.FileFunction,Legend,Bot*%
%TF.FilePolarity,Positive*%
%FSLAX46Y46*%
G04 Gerber Fmt 4.6, Leading zero omitted, Abs format (unit mm)*
G04 Created by KiCad (PCBNEW 7.0.2) date 2023-08-25 16:22:19*
%MOMM*%
%LPD*%
G01*
G04 APERTURE LIST*
%ADD10C,0.150000*%
%ADD11C,0.120000*%
G04 APERTURE END LIST*
D10*
%TO.C,C4*%
X147627628Y-105391926D02*
X147694971Y-105391926D01*
X147694971Y-105391926D02*
X147829658Y-105324583D01*
X147829658Y-105324583D02*
X147897002Y-105257239D01*
X147897002Y-105257239D02*
X147964345Y-105122552D01*
X147964345Y-105122552D02*
X147964345Y-104987865D01*
X147964345Y-104987865D02*
X147930674Y-104886850D01*
X147930674Y-104886850D02*
X147829658Y-104718491D01*
X147829658Y-104718491D02*
X147728643Y-104617476D01*
X147728643Y-104617476D02*
X147560284Y-104516461D01*
X147560284Y-104516461D02*
X147459269Y-104482789D01*
X147459269Y-104482789D02*
X147324582Y-104482789D01*
X147324582Y-104482789D02*
X147189895Y-104550132D01*
X147189895Y-104550132D02*
X147122552Y-104617476D01*
X147122552Y-104617476D02*
X147055208Y-104752163D01*
X147055208Y-104752163D02*
X147055208Y-104819506D01*
X146617475Y-105593957D02*
X147088880Y-106065361D01*
X146516460Y-105156224D02*
X147189895Y-105492942D01*
X147189895Y-105492942D02*
X146752162Y-105930674D01*
%TO.C,C2*%
X148127628Y-116141927D02*
X148194971Y-116141927D01*
X148194971Y-116141927D02*
X148329658Y-116074584D01*
X148329658Y-116074584D02*
X148397002Y-116007240D01*
X148397002Y-116007240D02*
X148464345Y-115872553D01*
X148464345Y-115872553D02*
X148464345Y-115737866D01*
X148464345Y-115737866D02*
X148430674Y-115636851D01*
X148430674Y-115636851D02*
X148329658Y-115468492D01*
X148329658Y-115468492D02*
X148228643Y-115367477D01*
X148228643Y-115367477D02*
X148060284Y-115266462D01*
X148060284Y-115266462D02*
X147959269Y-115232790D01*
X147959269Y-115232790D02*
X147824582Y-115232790D01*
X147824582Y-115232790D02*
X147689895Y-115300133D01*
X147689895Y-115300133D02*
X147622552Y-115367477D01*
X147622552Y-115367477D02*
X147555208Y-115502164D01*
X147555208Y-115502164D02*
X147555208Y-115569507D01*
X147285834Y-115838882D02*
X147218491Y-115838882D01*
X147218491Y-115838882D02*
X147117475Y-115872553D01*
X147117475Y-115872553D02*
X146949117Y-116040912D01*
X146949117Y-116040912D02*
X146915445Y-116141927D01*
X146915445Y-116141927D02*
X146915445Y-116209271D01*
X146915445Y-116209271D02*
X146949117Y-116310286D01*
X146949117Y-116310286D02*
X147016460Y-116377630D01*
X147016460Y-116377630D02*
X147151147Y-116444973D01*
X147151147Y-116444973D02*
X147959269Y-116444973D01*
X147959269Y-116444973D02*
X147521536Y-116882706D01*
%TO.C,R2*%
X158792619Y-122343334D02*
X158316428Y-122010001D01*
X158792619Y-121771906D02*
X157792619Y-121771906D01*
X157792619Y-121771906D02*
X157792619Y-122152858D01*
X157792619Y-122152858D02*
X157840238Y-122248096D01*
X157840238Y-122248096D02*
X157887857Y-122295715D01*
X157887857Y-122295715D02*
X157983095Y-122343334D01*
X157983095Y-122343334D02*
X158125952Y-122343334D01*
X158125952Y-122343334D02*
X158221190Y-122295715D01*
X158221190Y-122295715D02*
X158268809Y-122248096D01*
X158268809Y-122248096D02*
X158316428Y-122152858D01*
X158316428Y-122152858D02*
X158316428Y-121771906D01*
X157887857Y-122724287D02*
X157840238Y-122771906D01*
X157840238Y-122771906D02*
X157792619Y-122867144D01*
X157792619Y-122867144D02*
X157792619Y-123105239D01*
X157792619Y-123105239D02*
X157840238Y-123200477D01*
X157840238Y-123200477D02*
X157887857Y-123248096D01*
X157887857Y-123248096D02*
X157983095Y-123295715D01*
X157983095Y-123295715D02*
X158078333Y-123295715D01*
X158078333Y-123295715D02*
X158221190Y-123248096D01*
X158221190Y-123248096D02*
X158792619Y-122676668D01*
X158792619Y-122676668D02*
X158792619Y-123295715D01*
%TO.C,BT1*%
X151838809Y-97864285D02*
X151886428Y-98007142D01*
X151886428Y-98007142D02*
X151934047Y-98054761D01*
X151934047Y-98054761D02*
X152029285Y-98102380D01*
X152029285Y-98102380D02*
X152172142Y-98102380D01*
X152172142Y-98102380D02*
X152267380Y-98054761D01*
X152267380Y-98054761D02*
X152315000Y-98007142D01*
X152315000Y-98007142D02*
X152362619Y-97911904D01*
X152362619Y-97911904D02*
X152362619Y-97530952D01*
X152362619Y-97530952D02*
X151362619Y-97530952D01*
X151362619Y-97530952D02*
X151362619Y-97864285D01*
X151362619Y-97864285D02*
X151410238Y-97959523D01*
X151410238Y-97959523D02*
X151457857Y-98007142D01*
X151457857Y-98007142D02*
X151553095Y-98054761D01*
X151553095Y-98054761D02*
X151648333Y-98054761D01*
X151648333Y-98054761D02*
X151743571Y-98007142D01*
X151743571Y-98007142D02*
X151791190Y-97959523D01*
X151791190Y-97959523D02*
X151838809Y-97864285D01*
X151838809Y-97864285D02*
X151838809Y-97530952D01*
X151362619Y-98388095D02*
X151362619Y-98959523D01*
X152362619Y-98673809D02*
X151362619Y-98673809D01*
X152362619Y-99816666D02*
X152362619Y-99245238D01*
X152362619Y-99530952D02*
X151362619Y-99530952D01*
X151362619Y-99530952D02*
X151505476Y-99435714D01*
X151505476Y-99435714D02*
X151600714Y-99340476D01*
X151600714Y-99340476D02*
X151648333Y-99245238D01*
%TO.C,U2*%
X157386904Y-114557618D02*
X157386904Y-115367141D01*
X157386904Y-115367141D02*
X157339285Y-115462379D01*
X157339285Y-115462379D02*
X157291666Y-115509999D01*
X157291666Y-115509999D02*
X157196428Y-115557618D01*
X157196428Y-115557618D02*
X157005952Y-115557618D01*
X157005952Y-115557618D02*
X156910714Y-115509999D01*
X156910714Y-115509999D02*
X156863095Y-115462379D01*
X156863095Y-115462379D02*
X156815476Y-115367141D01*
X156815476Y-115367141D02*
X156815476Y-114557618D01*
X156386904Y-114652856D02*
X156339285Y-114605237D01*
X156339285Y-114605237D02*
X156244047Y-114557618D01*
X156244047Y-114557618D02*
X156005952Y-114557618D01*
X156005952Y-114557618D02*
X155910714Y-114605237D01*
X155910714Y-114605237D02*
X155863095Y-114652856D01*
X155863095Y-114652856D02*
X155815476Y-114748094D01*
X155815476Y-114748094D02*
X155815476Y-114843332D01*
X155815476Y-114843332D02*
X155863095Y-114986189D01*
X155863095Y-114986189D02*
X156434523Y-115557618D01*
X156434523Y-115557618D02*
X155815476Y-115557618D01*
%TO.C,U1*%
X157386904Y-124367619D02*
X157386904Y-125177142D01*
X157386904Y-125177142D02*
X157339285Y-125272380D01*
X157339285Y-125272380D02*
X157291666Y-125320000D01*
X157291666Y-125320000D02*
X157196428Y-125367619D01*
X157196428Y-125367619D02*
X157005952Y-125367619D01*
X157005952Y-125367619D02*
X156910714Y-125320000D01*
X156910714Y-125320000D02*
X156863095Y-125272380D01*
X156863095Y-125272380D02*
X156815476Y-125177142D01*
X156815476Y-125177142D02*
X156815476Y-124367619D01*
X155815476Y-125367619D02*
X156386904Y-125367619D01*
X156101190Y-125367619D02*
X156101190Y-124367619D01*
X156101190Y-124367619D02*
X156196428Y-124510476D01*
X156196428Y-124510476D02*
X156291666Y-124605714D01*
X156291666Y-124605714D02*
X156386904Y-124653333D01*
%TO.C,R1*%
X159666666Y-135462620D02*
X159999999Y-134986429D01*
X160238094Y-135462620D02*
X160238094Y-134462620D01*
X160238094Y-134462620D02*
X159857142Y-134462620D01*
X159857142Y-134462620D02*
X159761904Y-134510239D01*
X159761904Y-134510239D02*
X159714285Y-134557858D01*
X159714285Y-134557858D02*
X159666666Y-134653096D01*
X159666666Y-134653096D02*
X159666666Y-134795953D01*
X159666666Y-134795953D02*
X159714285Y-134891191D01*
X159714285Y-134891191D02*
X159761904Y-134938810D01*
X159761904Y-134938810D02*
X159857142Y-134986429D01*
X159857142Y-134986429D02*
X160238094Y-134986429D01*
X158714285Y-135462620D02*
X159285713Y-135462620D01*
X158999999Y-135462620D02*
X158999999Y-134462620D01*
X158999999Y-134462620D02*
X159095237Y-134605477D01*
X159095237Y-134605477D02*
X159190475Y-134700715D01*
X159190475Y-134700715D02*
X159285713Y-134748334D01*
D11*
%TO.C,R2*%
X159120000Y-122356360D02*
X159120000Y-122663642D01*
X159880000Y-122356360D02*
X159880000Y-122663642D01*
%TO.C,BT1*%
X154200000Y-96330000D02*
X152850000Y-97680000D01*
X156800000Y-96330000D02*
X154200000Y-96330000D01*
X152850000Y-97680000D02*
X152850000Y-101330000D01*
X158150000Y-97680000D02*
X156800000Y-96330000D01*
X158150000Y-101330000D02*
X158150000Y-97680000D01*
X152900000Y-101330001D02*
G75*
G03*
X158136355Y-101343233I2600000J-7199999D01*
G01*
D10*
%TO.C,U2*%
X158700000Y-121169999D02*
X158700000Y-121024999D01*
X158700000Y-121169999D02*
X154550000Y-121169999D01*
X158700000Y-116019999D02*
X154550000Y-116019999D01*
X158700000Y-116019999D02*
X158700000Y-116069999D01*
X154550000Y-121169999D02*
X154550000Y-121024999D01*
X154550000Y-116019999D02*
X154550000Y-116164999D01*
X158700000Y-116069999D02*
X160100000Y-116069999D01*
%TO.C,U1*%
X158700000Y-130980000D02*
X158700000Y-130835000D01*
X158700000Y-130980000D02*
X154550000Y-130980000D01*
X158700000Y-125830000D02*
X154550000Y-125830000D01*
X158700000Y-125830000D02*
X158700000Y-125880000D01*
X154550000Y-130980000D02*
X154550000Y-130835000D01*
X154550000Y-125830000D02*
X154550000Y-125975000D01*
X158700000Y-125880000D02*
X160100000Y-125880000D01*
D11*
%TO.C,R1*%
X159120000Y-132356359D02*
X159120000Y-132663641D01*
X159880000Y-132356359D02*
X159880000Y-132663641D01*
%TO.C,J2*%
X182340000Y-140110000D02*
X182590000Y-140110000D01*
X184450000Y-139116447D02*
X184950000Y-139116447D01*
X184700000Y-139470000D02*
X184450000Y-139116447D01*
X181490000Y-141310000D02*
X181490000Y-140410000D01*
X186310000Y-140410000D02*
X185460000Y-140410000D01*
X185140000Y-143030000D02*
X182660000Y-143030000D01*
X182340000Y-140410000D02*
X182340000Y-140110000D01*
X185460000Y-140110000D02*
X185210000Y-140110000D01*
X185460000Y-140410000D02*
X185460000Y-140110000D01*
X181490000Y-140410000D02*
X182340000Y-140410000D01*
X184950000Y-139116447D02*
X184700000Y-139470000D01*
X186310000Y-141310000D02*
X186310000Y-140410000D01*
X185210000Y-140110000D02*
X185210000Y-139970000D01*
%TD*%
M02*
