M48
; DRILL file {KiCad 7.0.2} date Mon May 29 23:30:32 2023
; FORMAT={-:-/ absolute / inch / decimal}
; #@! TF.CreationDate,2023-05-29T23:30:32-05:00
; #@! TF.GenerationSoftware,Kicad,Pcbnew,7.0.2
; #@! TF.FileFunction,Plated,1,2,PTH
FMAT,2
INCH
; #@! TA.AperFunction,Plated,PTH,ComponentDrill
T1C0.0130
; #@! TA.AperFunction,Plated,PTH,ViaDrill
T2C0.0157
; #@! TA.AperFunction,Plated,PTH,ComponentDrill
T3C0.0236
; #@! TA.AperFunction,Plated,PTH,ComponentDrill
T4C0.0315
; #@! TA.AperFunction,Plated,PTH,ComponentDrill
T5C0.0394
; #@! TA.AperFunction,Plated,PTH,ComponentDrill
T6C0.0433
%
G90
G05
T1
X4.0077Y-4.0658
X4.0077Y-4.117
X4.0118Y-3.3652
X4.0118Y-3.4163
X4.0589Y-4.0658
X4.0589Y-4.117
X4.063Y-3.3652
X4.063Y-3.4163
X4.11Y-4.0658
X4.11Y-4.117
X4.1142Y-3.3652
X4.1142Y-3.4163
T2
X4.3504Y-3.8878
X4.4094Y-3.8632
X4.626Y-3.9173
X4.7244Y-3.5531
X4.813Y-3.5827
X4.9114Y-3.8812
X4.9311Y-3.5138
X4.9492Y-3.768
X4.9492Y-3.9058
X5.028Y-3.955
X5.0476Y-3.5908
X5.0673Y-3.9058
X5.0772Y-3.5564
X5.1476Y-3.8484
X5.215Y-3.9058
X5.2839Y-3.581
X5.3232Y-3.7778
X5.3331Y-3.8664
X5.4315Y-3.5613
X5.4414Y-3.8664
X5.9055Y-3.6417
X6.0531Y-4.0748
X6.0728Y-3.6909
T3
X3.9823Y-4.3307
X3.9961Y-3.1496
X4.124Y-4.3307
X4.1378Y-3.1496
T4
X4.2717Y-3.248
X4.2734Y-4.2323
X4.3504Y-3.248
X4.3522Y-4.2323
T5
X4.5244Y-3.4449
X4.5244Y-4.0449
X4.6244Y-3.4449
X4.6244Y-4.0449
X4.7244Y-3.4449
X4.7244Y-4.0449
X4.8244Y-3.4449
X4.8244Y-4.0449
X4.9244Y-3.4449
X4.9244Y-4.0449
X5.0244Y-3.4449
X5.0244Y-4.0449
X5.1244Y-3.4449
X5.1244Y-4.0449
X5.2244Y-3.4449
X5.2244Y-4.0449
X5.3244Y-3.4449
X5.3244Y-4.0449
X5.4244Y-3.4449
X5.4244Y-4.0449
X5.5244Y-3.4449
X5.5244Y-4.0449
X5.6244Y-3.4449
X5.6244Y-4.0449
X5.7244Y-3.4449
X5.7244Y-4.0449
X5.8244Y-3.4449
X5.8244Y-4.0449
X5.9244Y-3.4449
X5.9244Y-4.0449
T6
X4.2323Y-3.6496
X4.2323Y-3.8307
T0
M30
