%TF.GenerationSoftware,KiCad,Pcbnew,7.0.2*%
%TF.CreationDate,2023-08-25T16:22:19-05:00*%
%TF.ProjectId,ziggy,7a696767-792e-46b6-9963-61645f706362,rev?*%
%TF.SameCoordinates,Original*%
%TF.FileFunction,Soldermask,Top*%
%TF.FilePolarity,Negative*%
%FSLAX46Y46*%
G04 Gerber Fmt 4.6, Leading zero omitted, Abs format (unit mm)*
G04 Created by KiCad (PCBNEW 7.0.2) date 2023-08-25 16:22:19*
%MOMM*%
%LPD*%
G01*
G04 APERTURE LIST*
G04 Aperture macros list*
%AMRoundRect*
0 Rectangle with rounded corners*
0 $1 Rounding radius*
0 $2 $3 $4 $5 $6 $7 $8 $9 X,Y pos of 4 corners*
0 Add a 4 corners polygon primitive as box body*
4,1,4,$2,$3,$4,$5,$6,$7,$8,$9,$2,$3,0*
0 Add four circle primitives for the rounded corners*
1,1,$1+$1,$2,$3*
1,1,$1+$1,$4,$5*
1,1,$1+$1,$6,$7*
1,1,$1+$1,$8,$9*
0 Add four rect primitives between the rounded corners*
20,1,$1+$1,$2,$3,$4,$5,0*
20,1,$1+$1,$4,$5,$6,$7,0*
20,1,$1+$1,$6,$7,$8,$9,0*
20,1,$1+$1,$8,$9,$2,$3,0*%
G04 Aperture macros list end*
%ADD10C,3.200000*%
%ADD11RoundRect,0.250000X0.550000X-0.550000X0.550000X0.550000X-0.550000X0.550000X-0.550000X-0.550000X0*%
%ADD12C,1.600000*%
%ADD13RoundRect,0.250000X0.671751X1.449569X-1.449569X-0.671751X-0.671751X-1.449569X1.449569X0.671751X0*%
%ADD14RoundRect,0.140000X-0.021213X0.219203X-0.219203X0.021213X0.021213X-0.219203X0.219203X-0.021213X0*%
%ADD15RoundRect,0.150000X0.587500X0.150000X-0.587500X0.150000X-0.587500X-0.150000X0.587500X-0.150000X0*%
%ADD16RoundRect,0.135000X0.185000X-0.135000X0.185000X0.135000X-0.185000X0.135000X-0.185000X-0.135000X0*%
%ADD17RoundRect,0.250000X-0.550000X0.550000X-0.550000X-0.550000X0.550000X-0.550000X0.550000X0.550000X0*%
%ADD18RoundRect,0.125000X0.125000X0.425000X-0.125000X0.425000X-0.125000X-0.425000X0.125000X-0.425000X0*%
%ADD19RoundRect,0.250000X0.350000X0.600000X-0.350000X0.600000X-0.350000X-0.600000X0.350000X-0.600000X0*%
%ADD20R,1.600000X1.600000*%
%ADD21O,1.600000X1.600000*%
%ADD22R,0.351536X0.576580*%
%ADD23R,0.576580X0.351536*%
%ADD24RoundRect,0.135000X-0.135000X-0.185000X0.135000X-0.185000X0.135000X0.185000X-0.135000X0.185000X0*%
%ADD25C,2.500000*%
%ADD26C,2.540000*%
%ADD27C,0.770000*%
G04 APERTURE END LIST*
D10*
%TO.C,H4*%
X148750000Y-98000000D03*
%TD*%
D11*
%TO.C,M2*%
X159250000Y-100870000D03*
D12*
X159250000Y-97270000D03*
%TD*%
D13*
%TO.C,C4*%
X153250000Y-104270000D03*
X149290202Y-108229798D03*
%TD*%
D14*
%TO.C,C1*%
X155928822Y-101571178D03*
X155250000Y-102250000D03*
%TD*%
D15*
%TO.C,Q2*%
X186125000Y-126020000D03*
X186125000Y-124120000D03*
X184250000Y-125070000D03*
%TD*%
D13*
%TO.C,C2*%
X153000545Y-114310202D03*
X149040747Y-118270000D03*
%TD*%
D15*
%TO.C,Q1*%
X186125000Y-130520000D03*
X186125000Y-128620000D03*
X184250000Y-129570000D03*
%TD*%
D16*
%TO.C,R4*%
X188000000Y-129510000D03*
X188000000Y-128490000D03*
%TD*%
D10*
%TO.C,H4*%
X191750000Y-98020000D03*
%TD*%
D16*
%TO.C,R6*%
X188000000Y-125500001D03*
X188000000Y-124480001D03*
%TD*%
D10*
%TO.C,H4*%
X148750000Y-140750000D03*
%TD*%
D17*
%TO.C,M1*%
X182500000Y-97270000D03*
D12*
X182500000Y-100870000D03*
%TD*%
D18*
%TO.C,J1*%
X184800000Y-135020000D03*
X184000000Y-135020000D03*
X183200000Y-135020000D03*
D19*
X181900000Y-136420000D03*
X186100000Y-136420000D03*
%TD*%
D20*
%TO.C,A1*%
X163140000Y-99970000D03*
D21*
X163140000Y-102510000D03*
X163140000Y-105050000D03*
X163140000Y-107590000D03*
X163140000Y-110130000D03*
X163140000Y-112670000D03*
X163140000Y-115210000D03*
X163140000Y-117750000D03*
X163140000Y-120290000D03*
X163140000Y-122830000D03*
X163140000Y-125370000D03*
X163140000Y-127910000D03*
X163140000Y-130450000D03*
X163140000Y-132990000D03*
X163140000Y-135530000D03*
X178380000Y-135530000D03*
X178380000Y-132990000D03*
X178380000Y-130450000D03*
X178380000Y-127910000D03*
X178380000Y-125370000D03*
X178380000Y-122830000D03*
X178380000Y-120290000D03*
X178380000Y-117750000D03*
X178380000Y-115210000D03*
X178380000Y-112670000D03*
X178380000Y-110130000D03*
X178380000Y-107590000D03*
X178380000Y-105050000D03*
X178380000Y-102510000D03*
X178380000Y-99970000D03*
%TD*%
D22*
%TO.C,U3*%
X190749999Y-128210300D03*
X191250000Y-128210300D03*
X191750000Y-128210300D03*
X192250001Y-128210300D03*
D23*
X192456300Y-127499999D03*
X192456300Y-127000000D03*
X192456300Y-126500001D03*
D22*
X192250001Y-125789700D03*
X191750000Y-125789700D03*
X191250000Y-125789700D03*
X190749999Y-125789700D03*
D23*
X190543700Y-126500001D03*
X190543700Y-127000000D03*
X190543700Y-127499999D03*
%TD*%
D24*
%TO.C,R3*%
X181480000Y-129500000D03*
X182500000Y-129500000D03*
%TD*%
D10*
%TO.C,H4*%
X191500000Y-140500000D03*
%TD*%
D24*
%TO.C,R5*%
X181480001Y-125070000D03*
X182500001Y-125070000D03*
%TD*%
D14*
%TO.C,C3*%
X156428822Y-110821178D03*
X155750000Y-111500000D03*
%TD*%
D25*
%TO.C,BT1*%
X155500000Y-99000000D03*
D26*
X155500000Y-108530000D03*
%TD*%
D27*
%TO.C,U2*%
X157275000Y-118594999D03*
X155975000Y-117294999D03*
X155975000Y-119894999D03*
X155975000Y-118594999D03*
X157275000Y-117294999D03*
X157275000Y-119894999D03*
%TD*%
%TO.C,U1*%
X157275000Y-128405000D03*
X155975000Y-127105000D03*
X155975000Y-129705000D03*
X155975000Y-128405000D03*
X157275000Y-127105000D03*
X157275000Y-129705000D03*
%TD*%
M02*
